<?xml version="1.0" standalone="no"?>
<!DOCTYPE svg PUBLIC "-//W3C//DTD SVG 1.1//EN" "http://www.w3.org/Graphics/SVG/1.1/DTD/svg11.dtd" >
<svg>
<metadata>
Created by FontForge 20090914 at Sat Jul  6 09:43:55 2013
 By www-data
Copyright c 1992 by CC Font ManipSystems
</metadata>
<defs>
<font id="LucidaSansBold" horiz-adv-x="1356" >
  <font-face 
    font-family="Lucida_Sans-Bold"
    font-weight="400"
    font-stretch="normal"
    units-per-em="2048"
    panose-1="2 11 5 0 0 0 0 0 0 0"
    ascent="1638"
    descent="-410"
    x-height="1102"
    cap-height="1467"
    bbox="-223 -412 2599 1948"
    underline-thickness="50"
    underline-position="-75"
    unicode-range="U+0020-U+2122"
  />
<missing-glyph horiz-adv-x="1536" 
d="M256 0v1280h1024v-1280h-1024zM1248 32v1216h-960v-1216h960z" />
    <glyph glyph-name=".notdef" horiz-adv-x="1536" 
d="M256 0v1280h1024v-1280h-1024zM1248 32v1216h-960v-1216h960z" />
    <glyph glyph-name="space" unicode=" " horiz-adv-x="565" 
 />
    <glyph glyph-name="exclam" unicode="!" horiz-adv-x="498" 
d="M53 0h392v295h-392v-295zM129 440h240l76 707v320h-392v-320z" />
    <glyph glyph-name="quotedbl" unicode="&#x22;" horiz-adv-x="1037" 
d="M146 881h215l98 680h-390zM674 881h219l98 680h-387z" />
    <glyph glyph-name="dollar" unicode="$" 
d="M742 522c33.333 -26.667 60 -52.667 80 -78s30 -54.333 30 -87c0 -30.667 -10.667 -58 -32 -82s-47.333 -39 -78 -45v292zM639 994c-62.667 41.333 -94 83.667 -94 127c0 34 7.33301 59.333 22 76s38.667 30.667 72 42v-245zM580 1659v-192.003
c-106.667 -18 -195.167 -60.667 -265.5 -128s-105.5 -153 -105.5 -257c0 -156.667 123.667 -305.667 371 -447v-418c-117.333 10.667 -253.333 50.334 -408 119.001v-264c142 -37.333 278 -60 408 -68v-199h219v199c77.333 4 145.5 24.333 204.5 61
s104.5 85.334 136.5 146.001s48 127.667 48 201c0 51.333 -9.66699 98.5 -29 141.5s-46.166 82.833 -80.499 119.5s-74.333 71.834 -120 105.501s-98.834 70.5 -159.501 110.5v363c127.333 -16 231 -45.333 311 -88v237c-135.333 38 -239 60 -311 66v192h-219z" />
    <glyph glyph-name="percent" unicode="%" horiz-adv-x="1759" 
d="M1364 0c117.333 0 210.167 31.667 278.5 95s102.5 153.333 102.5 270c0 118 -33.833 207.833 -101.5 269.5s-160.834 92.5 -279.501 92.5c-117.333 0 -210.166 -31 -278.499 -93s-102.5 -151.667 -102.5 -269c0 -116.667 34.5 -206.667 103.5 -270s161.5 -95 277.5 -95z
M1364 195c-60 0 -90 56.667 -90 170s30 170 90 170c61.333 0 92 -56.667 92 -170s-30.667 -170 -92 -170zM396.001 731c118.667 0 212.333 32.333 281 97c69.333 64 104 155.333 104 274c0 116 -34.5 205.833 -103.5 269.5s-162.833 95.5 -281.5 95.5
c-116 0 -208.333 -32 -277 -96c-68 -63.333 -102 -153 -102 -269c0 -118 34 -209.333 102 -274c68.667 -64.667 161 -97 277 -97zM396 925c-60.667 0 -91 59 -91 177c0 113.333 30.333 170 91 170c59.333 0 89 -56.667 89 -170c0 -118 -29.667 -177 -89 -177zM189 -37h247
l367 504l764 1034h-238l-372 -503z" />
    <glyph glyph-name="ampersand" unicode="&#x26;" horiz-adv-x="1579" 
d="M746 994l-20.999 36.001c-10.667 18 -20.334 35.667 -29.001 53c-8 17.333 -14.333 33.666 -19 48.999s-7 30 -7 44c0 32 10.333 57 31 75s45 27 73 27c31.333 0 58.333 -9.66699 81 -29s34 -46.333 34 -81c0 -37.333 -14.167 -71.833 -42.5 -103.5
s-61.833 -55.167 -100.5 -70.5zM1047 0.000976562l411.002 0.00292969l-206 271c54 48 102 103.5 144 166.5s75 130.5 99 202.5c23.333 72.667 35 144.667 35 216h-303c0 -178.667 -34.667 -314.334 -104 -407.001l-256 387c216.667 86 325 200.667 325 344
c0 50.667 -15.667 100.667 -47 150s-80 90.166 -146 122.499s-147 48.5 -243 48.5c-92.667 0 -172.834 -15 -240.501 -45s-119 -70 -154 -120s-52.5 -103.333 -52.5 -160c0 -48.667 10.5 -95.834 31.5 -141.501s50.167 -98.167 87.5 -157.5
c-74 -33.333 -138.333 -70 -193 -110s-98.667 -89 -132 -147c-33.333 -57.333 -50 -124 -50 -200c0 -98.667 26.333 -182 79 -250s121.667 -118.5 207 -151.5s176.666 -49.5 273.999 -49.5c145.333 0 271.333 33 378 99zM848.003 242.004
c-47.333 -31.333 -97.667 -47 -151 -47c-48 0 -93.833 12.5 -137.5 37.5s-78.5 60 -104.5 105s-39 95.167 -39 150.5c0 40.667 13.333 79 40 115s59.667 65 99 87z" />
    <glyph glyph-name="quotesingle" unicode="'" horiz-adv-x="498" 
d="M201 1171v-15.999c-8 -86 -57.333 -129 -148 -129v-149c72 0 138 15.5 198 46.5s107.333 73.167 142 126.5s52 111.666 52 174.999v336h-392v-390h148z" />
    <glyph glyph-name="parenleft" unicode="(" horiz-adv-x="764" 
d="M658 1583c-86 -32 -165.667 -81.332 -239 -147.999c-72.667 -66.667 -135.667 -144.5 -189 -233.5s-94 -182.5 -122 -280.5s-42 -193.333 -42 -286c0 -92 14 -186.833 42 -284.5s68.667 -191.334 122 -281.001s116.5 -168 189.5 -235s152.5 -117.167 238.5 -150.5v244
c-48.667 52 -88 117.833 -118 197.5s-51.667 163.5 -65 251.5s-20 174 -20 258c0 83.333 6.66699 169 20 257c13.333 88.667 35 173 65 253s69.333 145.667 118 197v241z" />
    <glyph glyph-name="parenright" unicode=")" horiz-adv-x="764" 
d="M107 -316c85.333 33.333 164.999 83.667 238.999 151c74 68 137 146 189 234s92.333 181.333 121 280s43 194 43 286s-14.333 187.333 -43 286s-69 192 -121 280s-115 165.667 -189 233c-74 68 -153.667 117.667 -239 149v-241c72.667 -75.333 124.667 -178.333 156 -309
s47 -263.334 47 -398.001c0 -85.333 -6.33301 -171.666 -19 -258.999s-34.167 -171 -64.5 -251s-70.166 -145.667 -119.499 -197v-244z" />
    <glyph glyph-name="asterisk" unicode="*" horiz-adv-x="897" 
d="M756 1342l-225 -158c21.333 -24.667 32 -63 32 -115h277zM777 881l-222 166c-15.333 -40 -46.333 -64.667 -93 -74l87 -260zM346 713l94.999 260c-45.333 7.33301 -79.666 32 -102.999 74l-215 -166zM52.999 1069h281c0 52 11.667 90.333 35 115l-223 158zM308.999 1467
l78 -267c18 8.66699 39.333 13 64 13c21.333 0 41 -4.33301 59 -13l79 267h-280z" />
    <glyph glyph-name="comma" unicode="," horiz-adv-x="674" 
d="M292 0l0.000976562 -17c0 -74.667 -48.667 -117.667 -146 -129v-149c71.333 0 136.666 15.667 195.999 47c60 30.667 107.167 72.5 141.5 125.5s51.5 110.833 51.5 173.5v336h-389v-387h146z" />
    <glyph glyph-name="hyphen" unicode="-" horiz-adv-x="539" 
d="M51 522h435v218h-435v-218z" />
    <glyph glyph-name="period" unicode="." horiz-adv-x="674" 
d="M146 0h389v387h-389v-387z" />
    <glyph glyph-name="slash" unicode="/" horiz-adv-x="1172" 
d="M0 -295h283l391 822l498 1034h-283l-395 -821z" />
    <glyph glyph-name="zero" unicode="0" 
d="M678 -37c100 0 189.335 21.498 268.002 64.498s144 100.5 196 172.5c51.333 72.667 90.333 155 117 247c26.667 92.667 40 187.334 40 284.001c0 98 -13.333 193.333 -40 286s-65.834 175.334 -117.501 248.001s-116.834 130.167 -195.501 172.5s-168 63.5 -268 63.5
c-99.333 0 -188.166 -21.167 -266.499 -63.5s-143.666 -100 -195.999 -173s-91.833 -155.833 -118.5 -248.5c-26 -92 -39 -187 -39 -285c0 -96.667 13 -191 39 -283c26.667 -92 66.167 -174.5 118.5 -247.5s117.666 -130.833 195.999 -173.5s167.166 -64 266.499 -64z
M678.002 182.998c-55.333 0 -98 23.999 -128 71.999s-50.333 112.833 -61 194.5s-16 183.834 -16 306.501c0 180 15.5 313 46.5 399s83.833 129 158.5 129c52.667 0 94.167 -19.5 124.5 -58.5s51.666 -96.833 63.999 -173.5s18.5 -175.334 18.5 -296.001
c0 -121.333 -5.16699 -223.166 -15.5 -305.499s-30.666 -147.5 -60.999 -195.5s-73.833 -72 -130.5 -72z" />
    <glyph glyph-name="one" unicode="1" 
d="M510 0v1243h-192v199l579 59v-1501h-387z" />
    <glyph glyph-name="two" unicode="2" 
d="M115 0l0.00292969 295.002c38 44 109.667 108.167 215 192.5s183.666 149.166 234.999 194.499s100 102.666 146 171.999c46 70 69 143 69 219c0 68.667 -23.333 119 -70 151c-48 32 -106.333 48 -175 48c-108.667 0 -237 -34.667 -385 -104v258
c159.333 50 319.666 75 480.999 75c92.667 0 181.667 -13.667 267 -41s155.666 -72 210.999 -134s83 -140.667 83 -236c0 -88 -26.5 -166.667 -79.5 -236s-115.5 -132 -187.5 -188l-237 -186.5c-85.333 -69 -136.333 -130.5 -153 -184.5h653v-295h-1073z" />
    <glyph glyph-name="three" unicode="3" 
d="M449 654h-131.001v219h137c107.333 0 189.833 20.667 247.5 62s86.5 101 86.5 179c0 57.333 -21.333 100 -64 128s-96.667 42 -162 42c-114 0 -234.667 -28 -362 -84v226c138 50 288.333 75 451 75c103.333 0 194 -12.667 272 -38
c78.667 -25.333 140.334 -64.333 185.001 -117s67 -119 67 -199c0 -92.667 -31 -171 -93 -235c-32.667 -33.333 -65.834 -59.666 -99.501 -78.999s-64.5 -33.666 -92.5 -42.999l-42 -14c65.333 -12 128.5 -36.167 189.5 -72.5s110.333 -82.333 148 -138
s56.5 -117.167 56.5 -184.5c0 -64.667 -16.333 -128.334 -49 -191.001s-94.167 -116.167 -184.5 -160.5s-215.166 -66.5 -374.499 -66.5c-170 0 -321.667 16.667 -455 50v258c141.333 -59.333 272 -89 392 -89c70.667 0 131.667 16.5 183 49.5s77 82.833 77 149.5
c0 91.333 -36.333 159.666 -109 204.999s-164 68 -274 68z" />
    <glyph glyph-name="four" unicode="4" 
d="M768 0h338v361h141v293h-141v813h-350l-683 -813v-293h695v-361zM360 654l408 483v-483h-408z" />
    <glyph glyph-name="five" unicode="5" 
d="M244 17l0.00195312 253.999c147.333 -59.333 263.333 -89 348 -89c44 0 83.667 10.333 119 31c35.333 19.333 62.833 46.5 82.5 81.5s29.5 74.167 29.5 117.5c0 66.667 -20.167 122.667 -60.5 168s-92 78.833 -155 100.5s-128.833 32.5 -197.5 32.5
c-52 0 -97 -4.66699 -135 -14v768h921v-295h-661l-41 -246h82c70.667 0 145 -9 223 -27c76.667 -18 147.667 -46.167 213 -84.5s118.166 -89.166 158.499 -152.499s60.5 -138.666 60.5 -225.999c0 -64 -12 -124.333 -36 -181s-60.5 -106.834 -109.5 -150.501
s-111 -78.167 -186 -103.5s-161.833 -38 -260.5 -38c-104.667 0 -236.334 18 -395.001 54z" />
    <glyph glyph-name="six" unicode="6" 
d="M678 183c-65.333 0 -116.832 27.165 -154.499 81.498s-56.5 118.5 -56.5 192.5c0 46 8 89.333 24 130s39.5 73.5 70.5 98.5s68.5 37.5 112.5 37.5c43.333 0 80.666 -13.167 111.999 -39.5s55.333 -60.166 72 -101.499c15.333 -42 23 -87 23 -135
c0 -73.333 -17.667 -135.666 -53 -186.999s-85.333 -77 -150 -77zM449.001 796.998c2 62.667 13.3359 130.334 34.0029 203.001c20 73.333 57.333 139 112 197c55.333 58 130 87 224 87c118 0 241 -30.667 369 -92v262c-142.667 31.333 -285.334 47 -428.001 47
c-117.333 0 -221 -21.5 -311 -64.5s-164.167 -102 -222.5 -177s-101.833 -159.833 -130.5 -254.5s-43 -194 -43 -298c0 -148.667 24.667 -279 74 -391s122.5 -198.833 219.5 -260.5s213.167 -92.5 348.5 -92.5c134 0 244.167 28.5 330.5 85.5s148.666 126.167 186.999 207.5
s57.5 158.666 57.5 231.999c0 84.667 -20.5 162.167 -61.5 232.5s-97.167 125.5 -168.5 165.5c-70.667 40 -148.334 60 -233.001 60c-69.333 0 -135.333 -12.667 -198 -38c-62 -25.333 -108.667 -62.333 -140 -111h-20z" />
    <glyph glyph-name="seven" unicode="7" 
d="M254 1172v294.998h1051v-295c-76 -75.333 -149.5 -161.166 -220.5 -257.499s-134.833 -197.5 -191.5 -303.5s-101.5 -210.833 -134.5 -314.5s-51.5 -202.5 -55.5 -296.5h-402c8 90 34.5 183.833 79.5 281.5s100.5 194.834 166.5 291.501
c66.667 96 141.167 195.5 223.5 298.5l241.5 300.5h-758z" />
    <glyph glyph-name="eight" unicode="8" 
d="M568 658c-75.333 -68.667 -113.001 -149.332 -113.001 -241.999c0 -68.667 27 -126.167 81 -172.5s115.667 -69.5 185 -69.5c52 0 101.167 16 147.5 48s69.5 72.667 69.5 122c0 40 -18.333 78.667 -55 116c-31.333 32 -67.666 60.667 -108.999 86
s-110 62.666 -206 111.999zM98.999 348.002c0 89.333 27.6699 171.998 83.0029 247.998c54.667 76.667 123.334 135.334 206.001 176.001c-60.667 35.333 -110.334 84.666 -149.001 147.999s-58 130.333 -58 201c0 52.667 16.667 108.334 50 167.001
s89.166 108.834 167.499 150.501s179.833 62.5 304.5 62.5c149.333 0 268 -29.667 356 -89c42.667 -29.333 75.5 -65 98.5 -107s34.5 -89 34.5 -141c0 -72.667 -19.667 -137 -59 -193s-93.333 -109.333 -162 -160c81.333 -47.333 146 -98 194 -152
c66.667 -76.667 100 -160.334 100 -251.001c0 -60 -17.667 -124.333 -53 -193c-36 -68 -98.833 -127 -188.5 -177s-208.834 -75 -357.501 -75c-98.667 0 -191.334 14.667 -278.001 44s-156.667 73.333 -210 132c-52.667 58.667 -79 128.334 -79 209.001zM781.002 914
c31.333 39.333 52.667 72.3311 64 98.998s17 56.334 17 89.001c0 56 -16.333 100.333 -49 133s-77.667 49 -135 49c-44.667 0 -84.5 -11.667 -119.5 -35s-52.5 -57.333 -52.5 -102c0 -33.333 15 -64 45 -92c14 -13.333 35.333 -29.166 64 -47.499s56 -34.5 82 -48.5z" />
    <glyph glyph-name="nine" unicode="9" 
d="M682 1284c44 0 81.832 -13.002 113.499 -39.002s55.5 -60.167 71.5 -102.5s24 -87.166 24 -134.499c0 -73.333 -18 -137.166 -54 -191.499s-86.333 -81.5 -151 -81.5c-64 0 -115.167 28.167 -153.5 84.5s-57.5 121.833 -57.5 196.5c0 72 18.333 134.667 55 188
s87.334 80 152.001 80zM913.999 669.998c-2 -62.667 -13.3311 -131.001 -33.998 -205.001c-20.667 -73.333 -58.667 -138.666 -114 -195.999c-54.667 -58 -129 -87 -223 -87c-132.667 0 -256.334 30.667 -371.001 92v-262c161.333 -32.667 305.333 -49 432 -49
c155.333 0 285.666 37 390.999 111s183.333 171.333 234 292s76 250.667 76 390c0 149.333 -24.667 280.333 -74 393c-48.667 112.667 -121 199.5 -217 260.5s-212 91.5 -348 91.5c-133.333 0 -243 -28.5 -329 -85.5s-148 -125.833 -186 -206.5s-57 -158 -57 -232
c0 -86 20.167 -164.167 60.5 -234.5s95.5 -125.333 165.5 -165s147.667 -59.5 233 -59.5c70.667 0 137.167 12.667 199.5 38s107.833 63.333 136.5 114h25z" />
    <glyph glyph-name="colon" unicode=":" horiz-adv-x="674" 
d="M146 0h389v387h-389v-387zM146 707h389v395h-389v-395z" />
    <glyph glyph-name="semicolon" unicode=";" horiz-adv-x="674" 
d="M292 0l0.000976562 -17c0 -74.667 -48.667 -117.667 -146 -129v-149c71.333 0 136.666 15.667 195.999 47c60 30.667 107.167 72.5 141.5 125.5s51.5 110.833 51.5 173.5v336h-389v-387h146zM146.001 707h389v395h-389v-395z" />
    <glyph glyph-name="less" unicode="&#x3c;" 
d="M1262 0v242l-673 340l673 340v250l-135 -66l-1024 -524l133 -68z" />
    <glyph glyph-name="greater" unicode="&#x3e;" 
d="M103 1172v-250l674 -340l-674 -340v-242l133 68l1026 514l-135 72z" />
    <glyph glyph-name="question" unicode="?" horiz-adv-x="1133" 
d="M73 1155c71.333 32.667 135.501 57.668 192.501 75.001s115.5 26 175.5 26c61.333 0 110.333 -15 147 -45s55 -76 55 -138c0 -58.667 -14.667 -111 -44 -157s-73.333 -99.333 -132 -160c-58 -60.667 -101.5 -113.834 -130.5 -159.501s-43.5 -97.834 -43.5 -156.501h385
v74c0 63.333 16 117.833 48 163.5s80.667 99.5 146 161.5c65.333 60.667 113.833 113.5 145.5 158.5s47.5 98.833 47.5 161.5c0 90.667 -31 161.334 -93 212.001c-62.667 51.333 -137.334 85.833 -224.001 103.5s-175.334 26.5 -266.001 26.5
c-157.333 0 -293.666 -22.333 -408.999 -67v-279zM293.001 0.000976562h385v295h-385v-295z" />
    <glyph glyph-name="at" unicode="@" horiz-adv-x="1633" 
d="M942 807c-21.333 -34.667 -52.3301 -78.001 -92.9971 -130.001s-82.334 -98.667 -125.001 -140s-75.667 -62 -99 -62c-25.333 0 -43.333 10.667 -54 32s-16 45 -16 71c0 51.333 9.66699 111.833 29 181.5s50.666 130.834 93.999 183.501s98.666 79 165.999 79
c56 0 99.667 -13.667 131 -41zM1204 1133l-146.996 0.000976562c-13.333 0 -46.333 3 -99 9c-52 6 -82.333 9 -91 9c-68.667 0 -134 -19.333 -196 -58s-116.667 -90.167 -164 -154.5s-84.333 -133.333 -111 -207s-40 -143.5 -40 -209.5c0 -60 13.167 -112.833 39.5 -158.5
s67.166 -68.5 122.499 -68.5c52 0 104.667 16.667 158 50s101.666 74.833 144.999 124.5s79.666 100.834 108.999 153.501h27c-34.667 -114 -52 -189.667 -52 -227c0 -67.333 50.667 -101 152 -101c80 0 153.5 15.333 220.5 46s124.167 73.167 171.5 127.5
s83.666 117.333 108.999 189s38 147.5 38 227.5c0 120 -29.167 227 -87.5 321s-137.166 166.667 -236.499 218s-208 77 -326 77c-117.333 0 -231 -25 -341 -75s-207.833 -119 -293.5 -207s-152.834 -188.667 -201.501 -302s-73 -230.666 -73 -351.999
c0 -76.667 18.5 -161.334 55.5 -254.001s103.333 -173.834 199 -243.501s224.5 -104.5 386.5 -104.5c114 0 226.667 26.667 338 80l-49 136c-92 -45.333 -196.333 -68 -313 -68c-114.667 0 -207.5 25.833 -278.5 77.5s-121.333 113 -151 184s-44.5 136.833 -44.5 197.5
c0 82.667 18 169.667 54 261c35.333 92 87 177.667 155 257c68 80 150.5 144.333 247.5 193s203.833 73 320.5 73c85.333 0 166.333 -20.333 243 -61c76 -40 137 -96 183 -168c46 -71.333 69 -151.333 69 -240c0 -76.667 -14.333 -147.334 -43 -212.001
s-65 -116.167 -109 -154.5s-86.667 -57.5 -128 -57.5c-53.333 0 -80 26 -80 78c0 18.667 4.16699 46.5 12.5 83.5s12.833 56.833 13.5 59.5z" />
    <glyph glyph-name="A" unicode="A" horiz-adv-x="1534" 
d="M17 0l555 1467h389l557 -1467h-387l-144 373h-571l-137 -373h-262zM507 606h391l-195 519z" />
    <glyph glyph-name="B" unicode="B" horiz-adv-x="1309" 
d="M793 0l-641 -0.000976562v1467h620c121.333 0 219.666 -27.167 294.999 -81.5s113 -138.5 113 -252.5c0 -68 -18.667 -126.833 -56 -176.5s-84.666 -89.167 -141.999 -118.5c-49.333 -25.333 -92.833 -44 -130.5 -56l-56.5 -18c80.667 -14 154 -36.833 220 -68.5
s119.833 -75.667 161.5 -132s62.5 -125.166 62.5 -206.499c0 -92 -34.5 -174.5 -103.5 -247.5s-183.167 -109.5 -342.5 -109.5zM502 640.999l0.000976562 -395.001c33.333 -4.66699 71.666 -7 114.999 -7c76 0 134 13 174 39c42.667 27.333 64 69.333 64 126
c0 78.667 -29.333 137.834 -88 177.501s-147 59.5 -265 59.5zM502.001 1221l-0.000976562 -340c24.667 -8.66699 49.334 -13 74.001 -13c58.667 0 109.667 20.333 153 61c44 40 66 91 66 153c0 59.333 -16 97.333 -48 114s-74 25 -126 25h-119z" />
    <glyph glyph-name="C" unicode="C" horiz-adv-x="1448" 
d="M1373 1454c-143.333 31.333 -316.333 47 -519 47c-119.333 0 -227.5 -17.333 -324.5 -52s-180 -85.334 -249 -152.001s-122 -148 -159 -244s-55.5 -204.667 -55.5 -326c0 -158.667 32.333 -295.5 97 -410.5s156.5 -202.667 275.5 -263s257.5 -90.5 415.5 -90.5
c102 0 197.333 6.33301 286 19c88.667 13.333 173.667 33 255 59v271c-141.333 -70 -280 -105 -416 -105c-106.667 0 -198 21.667 -274 65c-75.333 42.667 -132 103.834 -170 183.501s-57 174.5 -57 284.5c0 148.667 36.667 272 110 370c74 97.333 192 146 354 146
c138 0 281.667 -28 431 -84v282z" />
    <glyph glyph-name="D" unicode="D" horiz-adv-x="1633" 
d="M164 0v1467h793c82 0 169.5 -20.667 262.5 -62s173.5 -115.333 241.5 -222c68 -106 102 -248.333 102 -427c0 -166 -29.667 -305.667 -89 -419s-140.5 -197.833 -243.5 -253.5s-219.5 -83.5 -349.5 -83.5h-717zM549 1221l0.000976562 -963c66 -11.333 129 -17 189 -17
c151.333 0 258.666 47.833 321.999 143.5s95 214.167 95 355.5c0 134 -29.167 247.667 -87.5 341s-165.5 140 -321.5 140h-197z" />
    <glyph glyph-name="E" unicode="E" horiz-adv-x="1262" 
d="M152 0v1467h993v-246h-606v-357h498v-219h-498v-404h653v-241h-1040z" />
    <glyph glyph-name="F" unicode="F" horiz-adv-x="1172" 
d="M152 0v1467h1003v-246h-616v-406h502v-217h-502v-598h-387z" />
    <glyph glyph-name="G" unicode="G" horiz-adv-x="1493" 
d="M1364 690l-385 0.00195312v-483c-165.333 0 -291.666 47.167 -378.999 141.5s-131 224.833 -131 391.5c0 96 15 182.333 45 259c29.333 77.333 79 139.333 149 186c69.333 47.333 159.666 71 270.999 71c137.333 0 280.666 -28 429.999 -84v282
c-143.333 31.333 -315.333 47 -516 47c-118.667 0 -226.667 -17.333 -324 -52s-180.666 -85.334 -249.999 -152.001c-69.333 -66 -122.666 -147.333 -159.999 -244s-56 -205.334 -56 -326.001c0 -118.667 18.667 -225.667 56 -321s90.666 -175.833 159.999 -241.5
s152.833 -115.667 250.5 -150s205.5 -51.5 323.5 -51.5c184.667 0 356.667 23.333 516 70v657z" />
    <glyph glyph-name="H" unicode="H" horiz-adv-x="1579" 
d="M146 0v1467h385v-578h520v578h389v-1467h-389v645h-520v-645h-385z" />
    <glyph glyph-name="I" unicode="I" horiz-adv-x="674" 
d="M146 0v1467h385v-1467h-385z" />
    <glyph glyph-name="J" unicode="J" horiz-adv-x="996" 
d="M21 -242l-0.000976562 246c102.667 -34 191.334 -51 266.001 -51c48.667 0 85 10 109 30c23.333 20.667 38 48 44 82s9 82.667 9 146v1256h383v-1321c0 -150.667 -42.333 -262.667 -127 -336c-81.333 -70 -201 -105 -359 -105c-124 0 -232.333 17.667 -325 53z" />
    <glyph glyph-name="K" unicode="K" horiz-adv-x="1493" 
d="M159 0v1467h386l4 -703l508 703h303l-467 -639l584 -828h-461l-471 703v-703h-386z" />
    <glyph glyph-name="L" unicode="L" horiz-adv-x="1219" 
d="M156 0v1467h387v-1226h653v-241h-1040z" />
    <glyph glyph-name="M" unicode="M" horiz-adv-x="1856" 
d="M152 0v1467h500l305 -936h4l309 936h432v-1467h-352l-4 1026l-309 -925h-281l-307 950h-4v-1051h-293z" />
    <glyph glyph-name="N" unicode="N" horiz-adv-x="1534" 
d="M152 0v1467h321l625 -885v885h285v-1467h-321l-613 881h-4v-881h-293z" />
    <glyph glyph-name="O" unicode="O" horiz-adv-x="1669" 
d="M51 727c0 -158.667 32.499 -295.499 97.499 -410.499s156.833 -202.667 275.5 -263s257.334 -90.5 416.001 -90.5c156 0 293.167 30.167 411.5 90.5s210 148.166 275 263.499s97.5 252 97.5 410c0 121.333 -18.667 230 -56 326c-37.333 96.667 -90.333 178 -159 244
c-68.667 66.667 -151.334 117.334 -248.001 152.001s-203.667 52 -321 52c-119.333 0 -227.666 -17.333 -324.999 -52c-96.667 -34.667 -179.667 -85.334 -249 -152.001c-68.667 -66.667 -121.667 -148 -159 -244s-56 -204.667 -56 -326zM460.999 727.001
c0 86.667 12.833 170.333 38.5 251s66.834 147.334 123.501 200.001c57.333 52 129.666 78 216.999 78c85.333 0 156 -26.167 212 -78.5s96.833 -118.833 122.5 -199.5s38.5 -164.334 38.5 -251.001c0 -83.333 -12.667 -165 -38 -245c-26 -79.333 -67 -145 -123 -197
s-126.667 -78 -212 -78c-87.333 0 -159.666 26 -216.999 78c-56.667 52 -97.834 117.833 -123.501 197.5s-38.5 161.167 -38.5 244.5z" />
    <glyph glyph-name="P" unicode="P" horiz-adv-x="1309" 
d="M164 0l0.000976562 1467h647c142 0 249.5 -30.833 322.5 -92.5s109.5 -162.167 109.5 -301.5c0 -96.667 -20 -183.334 -60 -260.001c-39.333 -77.333 -97.333 -138 -174 -182s-167.334 -66 -272.001 -66h-211v-565h-362zM526.001 1209v-419.999
c60 0 113.5 5.16699 160.5 15.5s87.167 34.5 120.5 72.5c34 37.333 51 92.666 51 165.999c0 62 -22 106.833 -66 134.5s-99 41.5 -165 41.5c-35.333 0 -69 -3.33301 -101 -10z" />
    <glyph glyph-name="Q" unicode="Q" horiz-adv-x="1669" 
d="M1856 -68l-256 -236.999c-260 36 -490 125.333 -690 268c-74 0 -133.833 1.5 -179.5 4.5s-94.667 11.333 -147 25s-105.5 34.167 -159.5 61.5c-118.667 60 -210.5 147.5 -275.5 262.5s-97.5 251.833 -97.5 410.5c0 121.333 18.667 230 56 326s90.333 177.333 159 244
c69.333 66.667 152.333 117.334 249 152.001c97.333 34.667 205.666 52 324.999 52c117.333 0 224.333 -17.333 321 -52s179.334 -85.334 248.001 -152.001c68.667 -66 121.667 -147.333 159 -244c37.333 -96 56 -204.667 56 -326c0 -100.667 -15 -196 -45 -286
c-30 -89.333 -75.333 -168.833 -136 -238.5s-135.667 -124.834 -225 -165.501c210 -66 422.667 -101 638 -105zM461 727.001c0 -83.333 12.833 -164.832 38.5 -244.499s66.834 -145.5 123.501 -197.5c57.333 -52 129.666 -78 216.999 -78c85.333 0 156 26 212 78
s96.667 117.667 122 197c25.333 80 38 161.667 38 245c0 86.667 -12.667 170.334 -38 251.001s-66 147.167 -122 199.5s-126.667 78.5 -212 78.5c-87.333 0 -159.666 -26 -216.999 -78c-56.667 -52.667 -97.834 -119.334 -123.501 -200.001s-38.5 -164.334 -38.5 -251.001z
" />
    <glyph glyph-name="R" unicode="R" horiz-adv-x="1448" 
d="M156 0l0.00195312 1467h692c47.333 0 94 -6.66699 140 -20c45.333 -14.667 87.166 -36.834 125.499 -66.501s68.833 -67.834 91.5 -114.501s34 -101.334 34 -164.001c0 -60.667 -11.167 -118.667 -33.5 -174s-53.833 -104.5 -94.5 -147.5s-87.334 -75.833 -140.001 -98.5
l469 -682h-473l-313 582h-136v-582h-362zM518.002 1221v-417.998h129c43.333 0 80.666 13.167 111.999 39.5s55 58.833 71 97.5c16 39.333 24 77.666 24 114.999c0 55.333 -15.333 96.666 -46 123.999c-31.333 28 -87.666 42 -168.999 42h-121z" />
    <glyph glyph-name="S" unicode="S" horiz-adv-x="1172" 
d="M91 0c152.667 -24.667 302.001 -37.001 448.001 -37.001c157.333 0 280.166 24.667 368.499 74s148 107 179 173s46.5 130.667 46.5 194c0 108.667 -30.333 198.334 -91 269.001s-133 129.5 -217 176.5l-245 141.5c-78.667 47.333 -118 94.666 -118 141.999
c0 42.667 19.333 73.667 58 93c38.667 20 82.667 30 132 30c96 0 220.333 -25.333 373 -76v278c-154.667 28.667 -299 43 -433 43c-65.333 0 -128.833 -7.83301 -190.5 -23.5s-117.167 -40.5 -166.5 -74.5c-50 -33.333 -89 -76.333 -117 -129
c-29.333 -52.667 -44 -114 -44 -184c0 -103.333 29 -188.666 87 -255.999s146.667 -135.5 266 -204.5s198.333 -117.333 237 -145s58 -67.5 58 -119.5c0 -58.667 -24.333 -99.667 -73 -123c-48 -23.333 -103.667 -35 -167 -35c-128.667 0 -259 29.333 -391 88v-295z" />
    <glyph glyph-name="T" unicode="T" horiz-adv-x="1448" 
d="M531 0v1221h-527v246h1444v-246h-530v-1221h-387z" />
    <glyph glyph-name="U" unicode="U" horiz-adv-x="1534" 
d="M152 1467v-932c0 -128.667 27.667 -236 83 -322c54.667 -85.333 129.834 -148.333 225.501 -189s205.167 -61 328.5 -61c138 0 248.667 21.667 332 65s143.333 96.333 180 159c37.333 63.333 60.333 123 69 179s13 112.333 13 169v932h-336v-889
c0 -88.667 -9.33301 -160.5 -28 -215.5s-46.334 -94.667 -83.001 -119s-83.667 -36.5 -141 -36.5c-64 0 -114.667 14.833 -152 44.5s-64 74.5 -80 134.5s-24 137.667 -24 233v848h-387z" />
    <glyph glyph-name="V" unicode="V" horiz-adv-x="1448" 
d="M543 0l-527 1467h416l383 -1071l373 1071h260l-514 -1467h-391z" />
    <glyph glyph-name="W" unicode="W" horiz-adv-x="1856" 
d="M369 0l-352 1467h360l240 -996h4l223 996h301l219 -996l240 996h248l-359 -1467h-362l-197 889l-205 -889h-360z" />
    <glyph glyph-name="X" unicode="X" 
d="M33 0h285l303 467l260 -467h448l-450 789l430 678h-285l-278 -441l-248 441h-451l435 -760z" />
    <glyph glyph-name="Y" unicode="Y" horiz-adv-x="1448" 
d="M527 0h387v619l493 848h-276l-338 -582l-334 582h-422l490 -848v-619z" />
    <glyph glyph-name="Z" unicode="Z" horiz-adv-x="1309" 
d="M90 0v241l670 980h-633v246h1073v-246l-669 -980h669v-241h-1110z" />
    <glyph glyph-name="bracketleft" unicode="[" horiz-adv-x="764" 
d="M142 -295h528v248h-192v334v1032h192v242h-528v-821v-1035z" />
    <glyph glyph-name="backslash" unicode="\" horiz-adv-x="1172" 
d="M889 -295h283l-391 822l-498 1034h-283l391 -821z" />
    <glyph glyph-name="bracketright" unicode="]" horiz-adv-x="764" 
d="M629 1561h-530v-242h193v-334v-1032h-193v-248h530v822v1034z" />
    <glyph glyph-name="underscore" unicode="_" horiz-adv-x="996" 
d="M-4 -123h1004v123h-1004v-123z" />
    <glyph glyph-name="grave" unicode="`" horiz-adv-x="1309" 
d="M629 1272h225l-215 289h-301z" />
    <glyph glyph-name="a" unicode="a" horiz-adv-x="1219" 
d="M690 305v166h-77c-137.333 0 -206 -46.333 -206 -139c0 -75.333 35 -113 105 -113c30 0 63.167 8.83301 99.5 26.5s62.5 37.5 78.5 59.5zM1153 217v-216.999c-67.333 -18 -133.333 -27 -198 -27c-136 0 -224.333 42.667 -265 128h-24c-68 -82 -159.667 -123 -275 -123
c-59.333 0 -115.833 13 -169.5 39s-96.834 63.5 -129.501 112.5s-49 106.167 -49 171.5c0 98 26 176 78 234s112.5 98.333 181.5 121s131.5 34 187.5 34h200c0 62.667 -3 104.667 -9 126s-18.333 38.666 -37 51.999c-31.333 23.333 -80 35 -146 35
c-136 0 -254.667 -30.667 -356 -92v244c120.667 46 256.334 69 407.001 69c131.333 0 234 -15 308 -45s124.667 -72 152 -126s41 -121 41 -201v-424c0 -33.333 4.33301 -60 13 -80c6 -14 13.167 -22.667 21.5 -26s22.5 -5 42.5 -5h26z" />
    <glyph glyph-name="b" unicode="b" 
d="M150 0l-0.00292969 1561h385v-459l-24 -211h24c20.667 47.333 48 88.666 82 123.999c34.667 35.333 74.334 62.333 119.001 81c45.333 19.333 93 29 143 29c100 0 182 -25.667 246 -77c63.333 -50.667 109.333 -117.667 138 -201c28 -82.667 42 -173.667 42 -273
c0 -104 -16.167 -201.333 -48.5 -292s-83.5 -164.5 -153.5 -221.5s-157.667 -85.5 -263 -85.5c-39.333 0 -75.166 3.83301 -107.499 11.5s-65.166 21.834 -98.499 42.501c-28.667 18 -61.667 42 -99 72h-24l-50 -101h-311zM534.997 678l-0.000976562 -366.001
c42 -70 98 -105 168 -105c45.333 0 82 18.833 110 56.5s47.667 82.334 59 134.001s17 100.167 17 145.5c0 75.333 -12.5 142.333 -37.5 201s-69.833 88 -134.5 88c-39.333 0 -74.666 -15.333 -105.999 -46c-30.667 -30.667 -56 -66.667 -76 -108z" />
    <glyph glyph-name="c" unicode="c" horiz-adv-x="1082" 
d="M1020 266c-79.333 -32.667 -151.667 -49.001 -217 -49.001c-110.667 0 -192.667 29.667 -246 89s-80 145.666 -80 258.999c0 86 21.667 161.5 65 226.5s105.666 97.5 186.999 97.5c74 0 171 -24.667 291 -74v258c-201.333 34.667 -318 52 -350 52
c-157.333 0 -281 -31.667 -371 -95s-151.667 -138.666 -185 -225.999c-32.667 -87.333 -49 -173 -49 -257c0 -83.333 16.5 -168.166 49.5 -254.499s94.5 -160.5 184.5 -222.5c90 -63.333 213.667 -95 371 -95c124.667 0 241.334 12.667 350.001 38v253z" />
    <glyph glyph-name="d" unicode="d" 
d="M819 420l0.000976562 368.999c-17.333 30.667 -40.5 55.334 -69.5 74.001s-60.833 28 -95.5 28c-67.333 0 -116.333 -36.833 -147 -110.5s-46 -150.834 -46 -231.501c0 -41.333 5.16699 -83.166 15.5 -125.499s28.5 -78.333 54.5 -108s60.667 -44.5 104 -44.5
c75.333 0 136.666 49.667 183.999 149zM819.001 -0.000976562l25 207h-25c-29.333 -73.333 -74.333 -130 -135 -170c-60.667 -41.333 -131 -62 -211 -62c-145.333 0 -252 52.667 -320 158c-68 104 -102 233.667 -102 389c0 104.667 15.833 203 47.5 295
s82.167 166.333 151.5 223s157.333 85 264 85c64 0 115.667 -9 155 -27c38.667 -17.333 88.667 -49.333 150 -96h25l-25 100v459h390v-1561h-390z" />
    <glyph glyph-name="e" unicode="e" horiz-adv-x="1219" 
d="M1149 465l-675.998 0.00195312c25.333 -164 130.666 -246 315.999 -246c102.667 0 222.667 25.333 360 76v-258c-156.667 -40.667 -316.334 -61 -479.001 -61c-157.333 0 -281 31.167 -371 93.5s-151.5 136.666 -184.5 222.999s-49.5 171.166 -49.5 254.499
c0 84 16.333 169.667 49 257c33.333 87.333 95 162.5 185 225.5s213.667 94.5 371 94.5c125.333 0 223.333 -27.5 294 -82.5s119.167 -130.833 145.5 -227.5s39.5 -213 39.5 -349zM461.002 657.002h328c0 64.667 -10.333 121.667 -31 171c-20.667 50 -59 75 -115 75
c-54 0 -96.333 -22.667 -127 -68c-28 -40.667 -46.333 -100 -55 -178z" />
    <glyph glyph-name="f" unicode="f" horiz-adv-x="897" 
d="M180 0l382.999 0.000976562v881h285v221h-285v94c0 58 15.833 99.833 47.5 125.5s73.167 38.5 124.5 38.5c66.667 0 134.334 -18.333 203.001 -55v239c-98.667 26 -201.667 39 -309 39c-155.333 0 -269 -37.333 -341 -112s-108 -174.334 -108 -299.001v-70h-143v-221h143
v-881z" />
    <glyph glyph-name="g" unicode="g" 
d="M819 461l0.000976562 328.001c-47.333 68 -101 102 -161 102c-70 0 -120.333 -35 -151 -105s-46 -146.333 -46 -229c0 -35.333 5.33301 -72.333 16 -111s28.5 -71.834 53.5 -99.501s57.833 -41.5 98.5 -41.5c41.333 0 78.666 15 111.999 45s59.333 67 78 111zM1209 1102
l0.000976562 -1022c0 -172.667 -56.833 -297.834 -170.5 -375.501s-258.5 -116.5 -434.5 -116.5c-148.667 0 -296.667 32 -444 96l25 256c117.333 -57.333 235.333 -86 354 -86c88.667 0 154.667 12 198 36s70.666 54.333 81.999 91c6.66699 22 12.167 62.167 16.5 120.5
s7.16602 105.166 8.49902 140.499h-25c-31.333 -70.667 -78 -126.667 -140 -168c-62 -40.667 -133.333 -61 -214 -61c-94.667 0 -173 25.333 -235 76s-107.333 116.667 -136 198s-43 168 -43 260c0 104 17 199.667 51 287s86.333 157.666 157 210.999
c71.333 53.333 159 80 263 80c58.667 0 108.834 -9.66699 150.501 -29s90.5 -50.666 146.5 -93.999h25l23 100h342z" />
    <glyph glyph-name="h" unicode="h" 
d="M146 0l-0.000976562 1561h389v-459l-24 -211h24c34 70.667 82 127.334 144 170.001s130.667 64 206 64c108 0 189.667 -31.833 245 -95.5s83 -146.5 83 -248.5v-781h-389v658c0 52 -5.33301 94 -16 126s-37 48 -79 48c-35.333 0 -69.666 -14.333 -102.999 -43
c-30.667 -26.667 -61 -66.334 -91 -119.001v-670h-389z" />
    <glyph glyph-name="i" unicode="i" horiz-adv-x="674" 
d="M146 0v1102h385v-1102h-385zM146 1272v289h385v-289h-385z" />
    <glyph glyph-name="j" unicode="j" horiz-adv-x="674" 
d="M-223 -373v240c70 -38.667 138.667 -58 206 -58c48 0 87 12.333 117 37c30.667 24.667 46 63.667 46 117v1139h385v-1102c0 -74 -12.667 -141.667 -38 -203c-26 -60.667 -73.333 -110.667 -142 -150s-163.667 -59 -285 -59c-102 0 -198.333 13 -289 39zM146 1272v289h385
v-289h-385z" />
    <glyph glyph-name="k" unicode="k" 
d="M164 0v1561h385v-963h39l313 504h287l-287 -457l404 -645h-451l-266 522h-39v-522h-385z" />
    <glyph glyph-name="l" unicode="l" horiz-adv-x="674" 
d="M146 0v1561h385v-1561h-385z" />
    <glyph glyph-name="m" unicode="m" horiz-adv-x="1991" 
d="M514 1102l-24.002 -210.999h24c18.667 46.667 46 87.667 82 123c36 36 77.333 63.333 124 82c46.667 19.333 95.667 29 147 29c82.667 0 150 -19.333 202 -58s83.667 -97.334 95 -176.001h28c34 73.333 77.667 129.333 131 168c60.667 44 133.667 66 219 66
c126.667 0 209.334 -32.333 248.001 -97c38.667 -64 58 -139.667 58 -227v-801h-367v598c0 75.333 -6.66699 133 -20 173c-12.667 40.667 -42.334 61 -89.001 61c-37.333 0 -73.666 -18.333 -108.999 -55c-35.333 -36 -63.333 -75.667 -84 -119v-658h-364v598
c0 75.333 -6.33301 133 -19 173c-13.333 40.667 -43 61 -89 61c-37.333 0 -74.166 -18.5 -110.499 -55.5s-63.833 -76.5 -82.5 -118.5v-658h-364v1102h364z" />
    <glyph glyph-name="n" unicode="n" 
d="M535 1102l-23.999 -211.001h24c34 70.667 82 127.334 144 170.001s130.667 64 206 64c108 0 189.667 -31.833 245 -95.5s83 -146.5 83 -248.5v-781h-389v658c0 52 -5.33301 94 -16 126s-37 48 -79 48c-36.667 0 -72.334 -15.667 -107.001 -47
c-29.333 -26.667 -58.333 -65 -87 -115v-670h-389v1102h389z" />
    <glyph glyph-name="o" unicode="o" horiz-adv-x="1309" 
d="M654 -25c158 0 282.332 31.668 372.999 95.001c90.667 62 152.334 136.333 185.001 223c33.333 86 50 170.667 50 254c0 84 -16.5 169.667 -49.5 257s-94.833 162.666 -185.5 225.999s-215 95 -373 95c-156.667 0 -280 -31.833 -370 -95.5s-151.333 -139 -184 -226
s-49 -172.5 -49 -256.5c0 -83.333 16.333 -168 49 -254s94 -160.5 184 -223.5s213.333 -94.5 370 -94.5zM460.999 547.001c0 81.333 15.333 161 46 239s79.667 117 147 117c69.333 0 119.666 -38.667 150.999 -116s47 -157.333 47 -240c0 -80.667 -15.667 -159.5 -47 -236.5
s-81.666 -115.5 -150.999 -115.5c-67.333 0 -116.333 39 -147 117s-46 156.333 -46 235z" />
    <glyph glyph-name="p" unicode="p" 
d="M535 678l-0.000976562 -366.001c42 -70 98 -105 168 -105c45.333 0 82 18.833 110 56.5s47.667 82.334 59 134.001s17 100.167 17 145.5c0 75.333 -12.5 142.333 -37.5 201s-69.833 88 -134.5 88c-39.333 0 -74.666 -15.333 -105.999 -46
c-30.667 -30.667 -56 -66.667 -76 -108zM534.999 1102l-24.0029 -211h24c20.667 47.333 48 88.666 82 123.999c34.667 35.333 74.334 62.333 119.001 81c45.333 19.333 93 29 143 29c100 0 182 -25.667 246 -77c63.333 -50.667 109.333 -117.667 138 -201
c28 -82.667 42 -173.667 42 -273c0 -104 -16.167 -201.333 -48.5 -292s-83.5 -164.5 -153.5 -221.5s-157.667 -85.5 -263 -85.5c-39.333 0 -75.166 3.83301 -107.499 11.5s-65.166 21.834 -98.499 42.501c-28.667 18 -61.667 42 -99 72h-24l24 -101v-387h-385v1489h385z" />
    <glyph glyph-name="q" unicode="q" 
d="M1209 1102v-1489h-390v387l25 207h-25c-29.333 -73.333 -74.333 -130 -135 -170c-60.667 -41.333 -131 -62 -211 -62c-145.333 0 -252 52.667 -320 158c-68 104 -102 233.667 -102 389c0 104.667 15.833 203 47.5 295s82.167 166.333 151.5 223s157.333 85 264 85
c64 0 115.667 -9 155 -27c38.667 -17.333 88.667 -49.333 150 -96h25l45 100h320zM819 420l0.000976562 368.999c-17.333 30.667 -40.5 55.334 -69.5 74.001s-60.833 28 -95.5 28c-67.333 0 -116.333 -36.833 -147 -110.5s-46 -150.834 -46 -231.501
c0 -41.333 5.16699 -83.166 15.5 -125.499s28.5 -78.333 54.5 -108s60.667 -44.5 104 -44.5c75.333 0 136.666 49.667 183.999 149z" />
    <glyph glyph-name="r" unicode="r" horiz-adv-x="996" 
d="M549 1102l-22.002 -210.999h22c37.333 72 87 129 149 171s131 63 207 63h50v-344c-50 17.333 -96.667 26 -140 26c-57.333 0 -107.666 -11 -150.999 -33c-45.333 -22.667 -83.666 -57.334 -114.999 -104.001v-670h-385v1103z" />
    <glyph glyph-name="s" unicode="s" horiz-adv-x="1219" 
d="M123 33c152.667 -38.667 303.668 -58.002 453.001 -58.002c126 0 228.833 18.5 308.5 55.5s136.5 83.5 170.5 139.5s51 114 51 174c0 80.667 -27 144.834 -81 192.501s-119.333 85.5 -196 113.5l-216.5 80.5c-68.333 26.333 -102.5 54.5 -102.5 84.5
c0 58.667 58.667 88 176 88c93.333 0 200.666 -23.667 321.999 -71v245c-122 32 -246.333 48 -373 48c-132.667 0 -237.334 -18.333 -314.001 -55c-76 -36 -128 -80 -156 -132c-28 -51.333 -42 -103.666 -42 -156.999c0 -83.333 25.833 -150 77.5 -200
s113.834 -89.667 186.501 -119l206 -85c64.667 -27.333 97 -57.333 97 -90c0 -61.333 -54.333 -92 -163 -92c-119.333 0 -254 29.333 -404 88v-250z" />
    <glyph glyph-name="t" unicode="t" horiz-adv-x="858" 
d="M70 881h111.001l-1 -574c0 -58 10.667 -108.333 32 -151s50.5 -77 87.5 -103s79.167 -45.333 126.5 -58c47.333 -12 97.333 -18 150 -18c69.333 0 142.333 10.333 219 31v226c-23.333 -11.333 -50 -17 -80 -17c-40.667 0 -75.334 13.5 -104.001 40.5
s-43 64.167 -43 111.5v512h209v221h-209v217l-388 -47l1 -170h-111v-221z" />
    <glyph glyph-name="u" unicode="u" 
d="M819 0l24.999 207h-25c-35.333 -70.667 -84.166 -127 -146.499 -169s-132.833 -63 -211.5 -63c-105.333 0 -184.833 31.833 -238.5 95.5s-80.5 145.5 -80.5 245.5v786h385v-661c0 -54 5.33301 -95.667 16 -125c11.333 -30 38.666 -45 81.999 -45
c66.667 0 131.334 52.333 194.001 157v674h385v-1102h-385z" />
    <glyph glyph-name="v" unicode="v" horiz-adv-x="1309" 
d="M465 0l-424 1102h414l283 -729l274 729h262l-420 -1102h-389z" />
    <glyph glyph-name="w" unicode="w" horiz-adv-x="1759" 
d="M318 0l-271 1102h349l172 -698l200 698h330l172 -698l188 698h248l-303 -1102h-358l-174 686l-193 -686h-360z" />
    <glyph glyph-name="x" unicode="x" horiz-adv-x="1133" 
d="M33 0h285l188 297l172 -297h420l-325 570l297 532h-277l-162 -287l-162 287h-422l322 -567z" />
    <glyph glyph-name="y" unicode="y" horiz-adv-x="1262" 
d="M142 -387l299 387l-433 1102h420l246 -641l305 641h268l-704 -1489h-401z" />
    <glyph glyph-name="z" unicode="z" horiz-adv-x="1172" 
d="M98 0h1004v242h-560l548 639v221h-967v-221h516l-541 -639v-242z" />
    <glyph glyph-name="braceleft" unicode="{" horiz-adv-x="764" 
d="M107 510h66c26 0 50.167 -10 72.5 -30s33.5 -46.667 33.5 -80c0 -37.333 -6.5 -79.666 -19.5 -126.999l-39 -142c-13 -47.333 -19.5 -89.666 -19.5 -126.999c0 -199.333 143.333 -299 430 -299h35v248c-43.333 5.33301 -65 36.666 -65 93.999
c0 23.333 4.66699 62.666 14 117.999s14 102 14 140c0 73.333 -23.333 139.833 -70 199.5s-105 103.167 -175 130.5c70 26.667 128.333 70.167 175 130.5s70 127.5 70 201.5c0 36.667 -4.66699 82.5 -14 137.5s-14 93.833 -14 116.5c0 57.333 21.667 90 65 98v242h-35
c-127.333 0 -230.833 -21 -310.5 -63s-119.5 -121.333 -119.5 -238c0 -42.667 13 -111 39 -205c22 -71.333 33 -132 33 -182c0 -80.667 -33.333 -121 -100 -121h-66v-242z" />
    <glyph glyph-name="bar" unicode="|" horiz-adv-x="498" 
d="M142 -295h215v822v1034h-215v-821v-1035z" />
    <glyph glyph-name="braceright" unicode="}" horiz-adv-x="764" 
d="M658 752l-65 0.00292969c-26 0 -49.667 11.333 -71 34c-21.333 23.333 -32 51 -32 83c0 29.333 3 58.666 9 87.999s14.5 64.166 25.5 104.499s19.667 76.166 26 107.499s9.5 61.666 9.5 90.999c0 80 -20 142.333 -60 187c-39.333 44.667 -89.666 74.667 -150.999 90
c-61.333 16 -132 24 -212 24h-38v-242c44 -7.33301 66 -40 66 -98c0 -24.667 -3.83301 -64.5 -11.5 -119.5s-11.5 -99.833 -11.5 -134.5c0 -74.667 22.333 -142 67 -202s101.667 -103.333 171 -130c-46 -18 -87 -43.333 -123 -76
c-35.333 -32.667 -63.333 -70.834 -84 -114.501s-31 -90.167 -31 -139.5c0 -36 3.83301 -81.667 11.5 -137s11.5 -95.666 11.5 -120.999c0 -58 -22 -89.333 -66 -94v-248h39c281.333 0 422 99.667 422 299c0 51.333 -11 120.333 -33 207l-15.5 60
c-5.66699 21.333 -10.334 41.833 -14.001 61.5s-5.5 39.834 -5.5 60.501c0 78 33.667 117 101 117h65v242z" />
    <glyph glyph-name="asciitilde" unicode="~" 
d="M294 396l0.000976562 16.001c0 46 9.33301 85.167 28 117.5s48.667 48.5 90 48.5c44 0 96 -20 156 -60l90 -43c8 -3.33301 31 -14 69 -32s68.333 -31.333 91 -40c23.333 -8.66699 47.666 -15.667 72.999 -21c26 -6 52.667 -9 80 -9c64.667 0 118.834 18 162.501 54
s76 82.667 97 140s31.5 117.666 31.5 180.999v28h-196v-20c0 -44 -9 -82 -27 -114s-47.333 -48 -88 -48c-16.667 0 -34.167 3 -52.5 9s-36.833 13.333 -55.5 22l-50 24l-90 46c-77.333 38.667 -136.333 66 -177 82s-87 24 -139 24c-96.667 0 -168.334 -38.333 -215.001 -115
c-46 -77.333 -69 -167.333 -69 -270v-20h191z" />
    <glyph glyph-name="nonbreakingspace" unicode="&#xa0;" horiz-adv-x="1309" 
 />
    <glyph glyph-name="exclamdown" unicode="&#xa1;" horiz-adv-x="498" 
d="M445 1102h-392v-295h392v295zM369 658h-240l-76 -705v-318h392v318z" />
    <glyph glyph-name="cent" unicode="&#xa2;" 
d="M670 1315c-80.667 -5.33301 -153 -22.666 -217 -51.999s-118.667 -69.5 -164 -120.5s-79.833 -110.5 -103.5 -178.5s-35.5 -142.667 -35.5 -224c0 -82 11.5 -156.833 34.5 -224.5s56.833 -126.334 101.5 -176.001s99.167 -89.167 163.5 -118.5
s137.833 -47.666 220.5 -54.999v-203h215v203c30.667 0 60 2.16699 88 6.5s63.167 10.5 105.5 18.5s74.833 13.333 97.5 16v250c-125.333 -32.667 -222.333 -49 -291 -49c-216.667 0 -325 116 -325 348c0 100.667 20.667 182 62 244c42 62.667 109.333 94 202 94
c104 0 221.333 -28 352 -84v262c-81.333 21.333 -178.333 35.666 -291 42.999v186h-215v-186z" />
    <glyph glyph-name="sterling" unicode="&#xa3;" 
d="M232 0l991 0.000976562v295h-677v2c85.333 40 149.666 90 192.999 150s65 135.667 65 227h168v217h-168v170c0 55.333 4.66699 98.666 14 129.999c10 30.667 28.667 54 56 70c28 15.333 68.667 23 122 23c74.667 0 145.667 -12.333 213 -37v234
c-99.333 13.333 -193.666 20 -282.999 20c-174.667 0 -304 -38.333 -388 -115s-126 -194 -126 -352v-143h-141v-217h141v-117c0 -58 -3.33301 -104.167 -10 -138.5s-23.167 -62.5 -49.5 -84.5s-66.5 -35 -120.5 -39v-295z" />
    <glyph glyph-name="currency" unicode="&#xa4;" 
d="M459 353c65.333 -40 139.001 -59.998 221.001 -59.998c81.333 0 153.666 20 216.999 60l312 -312l155 158l-309 309c40.667 67.333 61 141.666 61 222.999c0 84 -20.333 160 -61 228l309 305l-155 158l-312 -308c-60 38.667 -131 58 -213 58c-80 0 -155 -19.333 -225 -58
l-307 308l-156 -158l309 -305c-39.333 -73.333 -59 -150 -59 -230c0 -76.667 19.667 -150.334 59 -221.001l-309 -309l156 -158zM535.001 727.002c0 46 14.001 81.833 42.001 107.5s61.667 38.5 101 38.5c41.333 0 76.666 -13 105.999 -39c29.333 -25.333 44 -61 44 -107
c0 -44.667 -15 -79.667 -45 -105c-29.333 -25.333 -64.333 -38 -105 -38c-38.667 0 -72 12.667 -100 38c-28.667 26 -43 61 -43 105z" />
    <glyph glyph-name="yen" unicode="&#xa5;" 
d="M477 0h385v328h220v172h-220v70h220v170h-201l444 727h-260l-305 -508l-301 508h-422l422 -727h-197v-170h215v-70h-215v-172h215v-328z" />
    <glyph glyph-name="section" unicode="&#xa7;" 
d="M473 686c0 21.333 12.3311 54.334 36.998 99.001c4.66699 -2.66699 37.334 -17.334 98.001 -44.001s109.334 -50.5 146.001 -71.5s67.667 -46.167 93 -75.5c25.333 -28.667 38 -60.667 38 -96c0 -28 -10.333 -59.333 -31 -94c-28 14.667 -73.333 36.334 -136 65.001
c-62.667 29.333 -109.667 53.333 -141 72s-56.5 39.667 -75.5 63s-28.5 50.666 -28.5 81.999zM1110 1471c-106.667 20 -242.331 30 -406.998 30c-356.667 0 -535 -120 -535 -360c0 -37.333 7.33301 -73.5 22 -108.5s34.667 -66.167 60 -93.5s54.666 -49.333 87.999 -66
c-105.333 -100.667 -158 -203.334 -158 -308.001c0 -93.333 29 -168.666 87 -225.999c58 -56.667 127 -102.334 207 -137.001l235 -103c76.667 -34.667 115 -72 115 -112c0 -65.333 -66.333 -98 -199 -98c-110 0 -251.333 24.667 -424 74v-254
c181.333 -24.667 306.333 -37 375 -37h63c366 0 549 123 549 369c0 56 -14 108.333 -42 157c-28 49.333 -66 87.333 -114 114c101.333 98 152 201.667 152 311c0 95.333 -29.333 172.333 -88 231s-131.834 106.334 -219.501 143.001l-236.5 100c-70 30 -105 61.667 -105 95
c0 61.333 67.667 92 203 92c114.667 0 238.667 -21 372 -63v250z" />
    <glyph glyph-name="dieresis" unicode="&#xa8;" horiz-adv-x="1309" 
d="M330 1272h238v242h-238v-242zM742 1272h241v242h-241v-242z" />
    <glyph glyph-name="copyright" unicode="&#xa9;" horiz-adv-x="1633" 
d="M51 727c0 -137.333 34.1699 -264.667 102.503 -382s161.166 -210.333 278.499 -279s245 -103 383 -103c103.333 0 201.166 19.667 293.499 59s173.666 94.5 243.999 165.5s125 152.833 164 245.5s58.5 190.667 58.5 294c0 140 -34 269.333 -102 388
s-160.333 212.667 -277 282s-243.667 104 -381 104c-138.667 0 -266.667 -34.667 -384 -104c-116.667 -69.333 -209.167 -163.333 -277.5 -282s-102.5 -248 -102.5 -388zM197.003 726.999c0 113.333 27.668 217.999 83.001 313.999s130.333 172.333 225 229
c95.333 56 198.666 84 309.999 84c110.667 0 213.834 -28.167 309.501 -84.5s171.5 -132.666 227.5 -228.999s84 -200.833 84 -313.5c0 -110.667 -28 -213.5 -84 -308.5s-131.833 -170 -227.5 -225s-198.834 -82.5 -309.501 -82.5c-111.333 0 -214.5 27.5 -309.5 82.5
s-170.167 130 -225.5 225s-83 197.833 -83 308.5zM1153 1125c-100.667 26 -204.996 39.001 -312.996 39.001c-102 0 -187.333 -19.333 -256 -58s-119.334 -90 -152.001 -154s-49 -133.333 -49 -208c0 -94.667 20.667 -175.667 62 -243s98.666 -118.5 171.999 -153.5
s156.666 -52.5 249.999 -52.5c89.333 0 184.666 11 285.999 33v143c-61.333 -32.667 -127.333 -49 -198 -49c-61.333 0 -118.666 12.167 -171.999 36.5s-96.333 60.166 -129 107.499c-33.333 48 -50 104.333 -50 169c0 58 10.833 110.333 32.5 157s53.167 83.667 94.5 111
c42 26.667 91.333 40 148 40c85.333 0 176.666 -20.667 273.999 -62v144z" />
    <glyph glyph-name="ordfeminine" unicode="&#xaa;" horiz-adv-x="1037" 
d="M596 955c-49.333 -42.667 -96.334 -64 -141.001 -64c-19.333 0 -38.666 5.33301 -57.999 16c-18.667 10 -28 24.667 -28 44c0 58.667 56.667 88 170 88h57v-84zM595.999 1196l-137 -0.000976562c-154 0 -263.5 -26.333 -328.5 -79s-97.5 -113.667 -97.5 -183
c0 -76.667 24.667 -133.334 74 -170.001s112 -55 188 -55c58 0 115.833 9.83301 173.5 29.5s104.5 46.5 140.5 80.5c39.333 -77.333 117 -116 233 -116c64 0 124.667 10.667 182 32v187h-24c-27.333 0 -45.166 12.333 -53.499 37s-12.5 61.334 -12.5 110.001v183
c0 50.667 -15 92.834 -45 126.501s-68.667 59.167 -116 76.5c-48 18 -98.333 30.167 -151 36.5s-106.334 9.5 -161.001 9.5c-138.667 0 -267.667 -18.333 -387 -55v-174c124.667 38 238.667 57 342 57c120 0 180 -31.333 180 -94v-39z" />
    <glyph glyph-name="guillemotleft" unicode="&#xab;" horiz-adv-x="1219" 
d="M658 1030l-172 134l-433 -445l433 -432l172 129l-217 303zM1168 1030l-177 134l-432 -445l432 -432l177 129l-221 303z" />
    <glyph glyph-name="logicalnot" unicode="&#xac;" 
d="M103 707h942v-465h217v680h-135h-1024v-215z" />
    <glyph glyph-name="registered" unicode="&#xae;" 
d="M160 977c0 -94.667 22.999 -182.332 68.999 -262.999c46.667 -80 109.667 -143.667 189 -191c79.333 -46.667 166 -70 260 -70c95.333 0 183 23.333 263 70s143.167 110.167 189.5 190.5s69.5 168.166 69.5 263.499c0 94 -23.333 181.333 -70 262s-110 144.5 -190 191.5
s-167.333 70.5 -262 70.5c-94 0 -180.667 -23.5 -260 -70.5s-142.166 -110.833 -188.499 -191.5s-69.5 -168 -69.5 -262zM304.999 977.002c0 68 17.001 130.668 51.001 188.001c33.333 58 78.666 103.667 135.999 137c56.667 34 118.667 51 186 51
c68 0 130.833 -16.833 188.5 -50.5s103.5 -79.334 137.5 -137.001s51 -120.5 51 -188.5c0 -68.667 -17 -132 -51 -190s-79.833 -104 -137.5 -138s-120.5 -51 -188.5 -51c-67.333 0 -129.5 17 -186.5 51s-102.333 80.167 -136 138.5s-50.5 121.5 -50.5 189.5zM643 885.003h31
l59 -191h193l-111 228c32 19.333 58.5 45 79.5 77s31.5 66.333 31.5 103c0 42 -11.333 73.333 -34 94s-51.667 33.667 -87 39s-83 8 -143 8h-201v-549h182v191zM643 994.003v131.001h11c30.667 0 53 -3.33301 67 -10s21 -23.334 21 -50.001c0 -47.333 -30 -71 -90 -71h-9z
" />
    <glyph glyph-name="plusminus" unicode="&#xb1;" 
d="M103 0h133h1026v217h-135h-1024v-217zM568 316h221v321h473v219h-473v316h-221v-316h-465v-219h465v-321z" />
    <glyph glyph-name="twosuperior" unicode="&#xb2;" horiz-adv-x="1037" 
d="M123 727l782.001 -0.000976562v172h-436v9c40.667 28.667 102.667 65.667 186 111c82.667 46 141.667 86.333 177 121s53 80 53 136c0 86 -40.333 145 -121 177c-80 32 -170 48 -270 48c-145.333 0 -270.333 -15.667 -375 -47v-174c80.667 32.667 173 49 277 49
c102 0 153 -30 153 -90c0 -29.333 -12 -57.666 -36 -84.999s-54.5 -53.333 -91.5 -78s-90.833 -57.167 -161.5 -97.5s-116.334 -66.833 -137.001 -79.5v-172z" />
    <glyph glyph-name="threesuperior" unicode="&#xb3;" horiz-adv-x="1037" 
d="M149 740c23.333 -2.66699 60.334 -7.33398 111.001 -14.001c51.333 -6.66699 95.666 -11.5 132.999 -14.5s71 -4.5 101 -4.5c110 0 211.667 13.667 305 41c92.667 28 139 83.333 139 166c0 44 -15 80.333 -45 109c-30 29.333 -66 51 -108 65
c-42.667 14.667 -86.334 24 -131.001 28v5c51.333 12.667 93 25.334 125 38.001c32.667 12.667 61.167 32.167 85.5 58.5s36.5 60.166 36.5 101.499c0 45.333 -21 81.666 -63 108.999s-93.667 46.333 -155 57s-123 16 -185 16c-131.333 0 -247.666 -15.667 -348.999 -47
v-170c106.667 30 206.667 45 300 45c76 0 114 -23 114 -69c0 -36.667 -14.667 -60 -44 -70c-30 -9.33301 -68.333 -14 -115 -14h-150v-157h129c82.667 -0.666992 139.5 -6.66699 170.5 -18s46.5 -29.666 46.5 -54.999s-13.667 -43.166 -41 -53.499s-56 -15.5 -86 -15.5
c-86.667 0 -194.667 16.333 -324 49v-186z" />
    <glyph glyph-name="acute" unicode="&#xb4;" horiz-adv-x="1309" 
d="M459 1272h227l289 289h-301z" />
    <glyph glyph-name="mu" unicode="&#xb5;" 
d="M1213 0l0.000976562 60v1042h-385v-674c-66.667 -110.667 -132.334 -166 -197.001 -166c-42.667 0 -69.334 16 -80.001 48s-16 75.667 -16 131v661h-385v-362v-1035h385v295c18 -11.333 39 -17 63 -17c80.667 0 157.334 74.667 230.001 224h24l-24 -207h385z" />
    <glyph glyph-name="paragraph" unicode="&#xb6;" 
d="M522 -295l191.001 -0.000976562v582v1032h98v-579v-1035h193v727v1035h-502c-230.667 0 -346 -112.667 -346 -338c0 -109.333 32.667 -197.166 98 -263.499s154.666 -112.5 267.999 -138.5v-1022z" />
    <glyph glyph-name="periodcentered" unicode="&#xb7;" horiz-adv-x="674" 
d="M193 441h293v286h-293v-286z" />
    <glyph glyph-name="cedilla" unicode="&#xb8;" horiz-adv-x="1309" 
d="M477 -361c50 -17.333 109.002 -26 177.002 -26c51.333 0 99.666 11 144.999 33s68 56.667 68 104c0 38.667 -16.833 69 -50.5 91s-72.834 35.333 -117.501 40l86 119h-154l-113 -137c31.333 -2.66699 61.333 -10.667 90 -24c29.333 -13.333 44 -32 44 -56
c0 -37.333 -29 -56 -87 -56c-22.667 0 -52 3.66699 -88 11v-99z" />
    <glyph glyph-name="onesuperior" unicode="&#xb9;" horiz-adv-x="1037" 
d="M350 727h336v774l-486 -34v-195h150v-545z" />
    <glyph glyph-name="ordmasculine" unicode="&#xba;" horiz-adv-x="1037" 
d="M21 1106c0 -86.667 23.1689 -161 69.502 -223s107.5 -108.667 183.5 -140c76 -30.667 156.667 -46 242 -46s166 15.333 242 46c76 31.333 137.333 78 184 140s70 136.333 70 223c0 85.333 -23.333 158.833 -70 220.5s-107.834 108 -183.501 139
s-155.834 46.5 -240.501 46.5c-85.333 0 -166 -15.667 -242 -47c-76 -30.667 -137.667 -77 -185 -139c-46.667 -62 -70 -135.333 -70 -220zM357.002 1106c0 61.333 12.332 113.831 36.999 157.498s66 65.5 124 65.5c52 0 91.667 -22.167 119 -66.5s41 -97.166 41 -158.499
c0 -62 -13.667 -115.5 -41 -160.5s-67 -67.5 -119 -67.5c-57.333 0 -98.666 23 -123.999 69c-24.667 44.667 -37 98.334 -37 161.001z" />
    <glyph glyph-name="guillemotright" unicode="&#xbb;" horiz-adv-x="1219" 
d="M53 416l175 -129l430 432l-430 445l-175 -134l226 -311zM559 416l179 -129l430 432l-430 445l-179 -134l230 -311z" />
    <glyph glyph-name="onequarter" unicode="&#xbc;" horiz-adv-x="2130" 
d="M271 727h338v774l-486 -34v-195h148v-545zM293 -37h316l358 504l739 1034h-315l-359 -503zM1897 217h106v170h-106v353h-344l-389 -353v-170h436v-217h297v217zM1381 387l219 195v-195h-219z" />
    <glyph glyph-name="onehalf" unicode="&#xbd;" horiz-adv-x="2130" 
d="M236 727h336v774l-482 -34v-195h146v-545zM262 -37h310l366 504l740 1034h-314l-360 -503zM1279 0l785.999 0.000976562v166h-432v8c40.667 29.333 102.334 66.666 185.001 111.999s141.834 85.166 177.501 119.499s53.5 78.833 53.5 133.5
c0 84.667 -41.333 144 -124 178s-174 51 -274 51c-134 0 -258 -17 -372 -51v-174c90.667 36.667 182 55 274 55c40.667 0 77 -6.66699 109 -20c32.667 -13.333 49 -36.666 49 -69.999c0 -30 -12 -58.667 -36 -86c-23.333 -28 -54.333 -54.5 -93 -79.5
s-92.334 -56.5 -161.001 -94.5c-68 -38 -115.333 -65.333 -142 -82v-166z" />
    <glyph glyph-name="threequarters" unicode="&#xbe;" horiz-adv-x="2216" 
d="M412 -37h313l365 504l737 1034h-313l-361 -503zM1999 217h102v170h-102v353h-348l-389 -353v-170h432v-217h305v217zM1477 387l217 195v-195h-217zM123 740l107 -14.0029c52 -6.66699 96.667 -11.5 134 -14.5s71 -4.5 101 -4.5c109.333 0 210 13.667 302 41
c92 28 138 83.333 138 166c0 62.667 -29 110.334 -87 143.001s-121 52.334 -189 59.001v5c51.333 13.333 92.666 26.333 123.999 39s59.5 32 84.5 58s37.5 59.667 37.5 101c0 66 -41.5 112.833 -124.5 140.5s-176.833 41.5 -281.5 41.5
c-133.333 0 -248.666 -15.667 -345.999 -47v-170c104 30 201.667 45 293 45c82 0 123 -23 123 -69c0 -36.667 -15 -60 -45 -70c-30 -9.33301 -69 -14 -117 -14h-154v-157h134c82.667 -0.666992 138.5 -6.5 167.5 -17.5s43.5 -29.5 43.5 -55.5
c0 -25.333 -13 -43.166 -39 -53.499s-52.667 -15.5 -80 -15.5c-94 0 -202.667 16.333 -326 49v-186z" />
    <glyph glyph-name="questiondown" unicode="&#xbf;" horiz-adv-x="1133" 
d="M1055 -56c-139.333 -68 -261.002 -101.997 -365.002 -101.997c-136 0 -204 61 -204 183c0 59.333 14.833 111.666 44.5 156.999s73.834 98.666 132.501 159.999c59.333 60.667 103.666 113.834 132.999 159.501s44 97.834 44 156.501h-387v-76
c0 -62.667 -16.5 -117.334 -49.5 -164.001s-81.833 -100.334 -146.5 -161.001c-66 -60.667 -115 -113.334 -147 -158.001c-32 -44 -48 -97 -48 -159c0 -89.333 31.333 -159.333 94 -210s137.834 -85 225.501 -103s177.834 -27 270.501 -27c152 0 286.333 21.333 403 64v280z
M839.998 1102h-387v-295h387v295z" />
    <glyph glyph-name="Agrave" unicode="&#xc0;" horiz-adv-x="1534" 
d="M17 0h262l137 373h571l144 -373h387l-164 432l-393 1035h-389l-164 -432zM507 606l196 519l195 -519h-391zM733 1641h234l-221 286h-297z" />
    <glyph glyph-name="Aacute" unicode="&#xc1;" horiz-adv-x="1534" 
d="M17 0h262l137 373h571l144 -373h387l-164 432l-393 1035h-389l-164 -432zM507 606l196 519l195 -519h-391zM564 1641h235l291 286h-301z" />
    <glyph glyph-name="Acircumflex" unicode="&#xc2;" horiz-adv-x="1534" 
d="M17 0h262l137 373h571l144 -373h387l-164 432l-393 1035h-389l-164 -432zM507 606l196 519l195 -519h-391zM897 1641h234l-221 286h-285l-221 -286h231l133 145z" />
    <glyph glyph-name="Atilde" unicode="&#xc3;" horiz-adv-x="1534" 
d="M17 0h262l137 373h571l144 -373h387l-164 432l-393 1035h-389l-164 -432zM507 606l196 519l195 -519h-391zM938 1927c0 -14.667 -4.83496 -27.168 -14.502 -37.501s-22.5 -15.5 -38.5 -15.5c-30 0 -74.167 8.83301 -132.5 26.5s-103.5 26.5 -135.5 26.5
c-71.333 0 -124 -28.833 -158 -86.5s-52.333 -124.167 -55 -199.5h196c0 34 15.667 51 47 51c21.333 0 42 -2.33301 62 -7c19.333 -4 45.833 -10.667 79.5 -20s58.834 -15.666 75.501 -18.999s34.667 -5 54 -5c48 0 87.833 14 119.5 42s54.834 63.5 69.501 106.5
s22.667 88.833 24 137.5h-193z" />
    <glyph glyph-name="Adieresis" unicode="&#xc4;" horiz-adv-x="1534" 
d="M17 0h262l137 373h571l144 -373h387l-164 432l-393 1035h-389l-164 -432zM506 606l197 519l194 -519h-391zM445 1641h237v241h-237v-241zM852 1641h242v241h-242v-241z" />
    <glyph glyph-name="Aring" unicode="&#xc5;" horiz-adv-x="1534" 
d="M17 0h262l137 373h571l144 -373h387l-164 432l-393 1035h-389l-164 -433zM507 606l196 519l195 -519h-391zM613 1798c0 -48 15.333 -85.667 46 -113c30.667 -26.667 67 -40 109 -40c28 0 54 5.66699 78 17c24 12 43.333 29.333 58 52c14.667 23.333 22 51.333 22 84
c0 32 -7.5 59.333 -22.5 82s-34.5 39.667 -58.5 51s-50.333 17 -79 17c-41.333 0 -77.333 -13.333 -108 -40c-30 -26 -45 -62.667 -45 -110zM707 1798c0 17.333 5.66699 31.001 17 41.001c12 10 25.333 15 40 15c18 0 33 -4.66699 45 -14c12.667 -10 19 -24 19 -42
c0 -20 -6.16699 -35.5 -18.5 -46.5s-26.833 -16.5 -43.5 -16.5c-15.333 0 -29 5.66699 -41 17s-18 26.666 -18 45.999z" />
    <glyph glyph-name="AE" unicode="&#xc6;" horiz-adv-x="1991" 
d="M13 0h279l190 352h389v-352h10h1028v241h-651v404h496l-1 220h-495v356h604v246h-23h-1024l-239 -433zM605 570l262 492h4v-492h-266z" />
    <glyph glyph-name="Ccedilla" unicode="&#xc7;" horiz-adv-x="1448" 
d="M1373 1454c-143.333 31.333 -316.333 47 -519 47c-119.333 0 -227.5 -17.333 -324.5 -52s-180 -85.334 -249 -152.001s-122 -148 -159 -244s-55.5 -204.667 -55.5 -326c0 -158.667 32.333 -295.5 97 -410.5s156.5 -202.667 275.5 -263s257.5 -90.5 415.5 -90.5
c102 0 197.333 6.33301 286 19c88.667 13.333 173.667 33 255 59v271c-141.333 -70 -280 -105 -416 -105c-106.667 0 -198 21.667 -274 65c-75.333 42.667 -132 103.834 -170 183.501s-57 174.5 -57 284.5c0 148.667 36.667 272 110 370c74 97.333 192 146 354 146
c138 0 281.667 -28 431 -84v282zM546 -361c50.667 -17.333 109 -25.999 175 -25.999c53.333 0 103 10.833 149 32.5s69 56.5 69 104.5c0 38 -17.5 68 -52.5 90s-74.167 35.667 -117.5 41l84 119h-154l-110 -137c30.667 -2.66699 60 -10.667 88 -24
c27.333 -12.667 41 -31.334 41 -56.001c0 -37.333 -28.333 -56 -85 -56c-26.667 0 -55.667 3.66699 -87 11v-99z" />
    <glyph glyph-name="Egrave" unicode="&#xc8;" horiz-adv-x="1262" 
d="M151 0h13h1028v241h-654v404h499v220h-499l1 356h606v246h-994v-433v-1034zM600 1641h232l-219 286h-304z" />
    <glyph glyph-name="Eacute" unicode="&#xc9;" horiz-adv-x="1262" 
d="M151 0h13h1028v241h-654v404h499v220h-499l1 356h606v246h-994v-433v-1034zM432 1641h230l293 286h-303z" />
    <glyph glyph-name="Ecircumflex" unicode="&#xca;" horiz-adv-x="1262" 
d="M151 0h13h1028v241h-654v404h499v220h-499l1 356h606v246h-994v-433v-1034zM764 1641h227l-215 286h-290l-216 -286h228l133 145z" />
    <glyph glyph-name="Edieresis" unicode="&#xcb;" horiz-adv-x="1262" 
d="M152 0h12h1028v241h-653v404h498v220h-498v356h606v246h-993v-433v-1034zM305 1641h240v241h-240v-241zM712 1641h245v241h-245v-241z" />
    <glyph glyph-name="Igrave" unicode="&#xcc;" horiz-adv-x="674" 
d="M146 0h385v432v1035h-385v-433v-1034zM305 1641h234l-221 286h-301z" />
    <glyph glyph-name="Iacute" unicode="&#xcd;" horiz-adv-x="674" 
d="M146 0h385v432v1035h-385v-433v-1034zM137 1641h232l289 286h-301z" />
    <glyph glyph-name="Icircumflex" unicode="&#xce;" horiz-adv-x="674" 
d="M146 0h385v432v1035h-385v-433v-1034zM469 1641h230l-217 286h-289l-217 -286h229l133 145z" />
    <glyph glyph-name="Idieresis" unicode="&#xcf;" horiz-adv-x="674" 
d="M146 0h385v432v1035h-385v-433v-1034zM13 1641h241v241h-241v-241zM424 1641h238v241h-238v-241z" />
    <glyph glyph-name="Eth" unicode="&#xd0;" horiz-adv-x="1633" 
d="M164 0h717c130 -0 246.5 27.833 349.5 83.5s184.167 140.167 243.5 253.5s89 253 89 419c0 178.667 -34 321 -102 427c-68 106.667 -148.5 180.667 -241.5 222s-180.5 62 -262.5 62h-793v-602h-211v-220h211v-645zM549 1221h196.999c156 0 263.167 -46.667 321.5 -140
s87.5 -207 87.5 -341c0 -141.333 -31.667 -259.833 -95 -355.5s-170.666 -143.5 -321.999 -143.5c-60 0 -123 5.66699 -189 17v387h295v220h-295v356z" />
    <glyph glyph-name="Ntilde" unicode="&#xd1;" horiz-adv-x="1534" 
d="M152 0v1467h321l625 -885v885h285v-1467h-321l-613 881h-4v-881h-293zM942 1927h190.999c-0.666992 -46.667 -8 -92 -22 -136c-14.667 -43.333 -38.334 -79.333 -71.001 -108c-32 -28.667 -72.667 -43 -122 -43c-28.667 0 -72.5 8.5 -131.5 25.5
s-103.833 25.5 -134.5 25.5c-34.667 0 -52 -17 -52 -51h-196c2.66699 75.333 21.334 142 56.001 200s88.334 87 161.001 87c30.667 0 75 -8.83301 133 -26.5s101.667 -26.5 131 -26.5c38 0 57 17.667 57 53z" />
    <glyph glyph-name="Ograve" unicode="&#xd2;" horiz-adv-x="1669" 
d="M51 727c0 -158.667 32.499 -295.499 97.499 -410.499s156.833 -202.667 275.5 -263s257.334 -90.5 416.001 -90.5c156 0 293.167 30.167 411.5 90.5s210 148.166 275 263.499s97.5 252 97.5 410c0 121.333 -18.667 230 -56 326c-37.333 96.667 -90.333 178 -159 244
c-68.667 66.667 -151.334 117.334 -248.001 152.001s-203.667 52 -321 52c-119.333 0 -227.666 -17.333 -324.999 -52c-96.667 -34.667 -179.667 -85.334 -249 -152.001c-68.667 -66.667 -121.667 -148 -159 -244s-56 -204.667 -56 -326zM460.999 727.001
c0 86.667 12.833 170.333 38.5 251s66.834 147.334 123.501 200.001c57.333 52 129.666 78 216.999 78c85.333 0 156 -26.167 212 -78.5s96.833 -118.833 122.5 -199.5s38.5 -164.334 38.5 -251.001c0 -83.333 -12.667 -165 -38 -245c-26 -79.333 -67 -145 -123 -197
s-126.667 -78 -212 -78c-87.333 0 -159.666 26 -216.999 78c-56.667 52 -97.834 117.833 -123.501 197.5s-38.5 161.167 -38.5 244.5zM806.999 1640h230l-218 287h-301z" />
    <glyph glyph-name="Oacute" unicode="&#xd3;" horiz-adv-x="1669" 
d="M51 727c0 -158.667 32.499 -295.499 97.499 -410.499s156.833 -202.667 275.5 -263s257.334 -90.5 416.001 -90.5c156 0 293.167 30.167 411.5 90.5s210 148.166 275 263.499s97.5 252 97.5 410c0 121.333 -18.667 230 -56 326c-37.333 96.667 -90.333 178 -159 244
c-68.667 66.667 -151.334 117.334 -248.001 152.001s-203.667 52 -321 52c-119.333 0 -227.666 -17.333 -324.999 -52c-96.667 -34.667 -179.667 -85.334 -249 -152.001c-68.667 -66.667 -121.667 -148 -159 -244s-56 -204.667 -56 -326zM460.999 727.001
c0 86.667 12.833 170.333 38.5 251s66.834 147.334 123.501 200.001c57.333 52 129.666 78 216.999 78c85.333 0 156 -26.167 212 -78.5s96.833 -118.833 122.5 -199.5s38.5 -164.334 38.5 -251.001c0 -83.333 -12.667 -165 -38 -245c-26 -79.333 -67 -145 -123 -197
s-126.667 -78 -212 -78c-87.333 0 -159.666 26 -216.999 78c-56.667 52 -97.834 117.833 -123.501 197.5s-38.5 161.167 -38.5 244.5zM638.999 1640h228l288 287h-301z" />
    <glyph glyph-name="Ocircumflex" unicode="&#xd4;" horiz-adv-x="1669" 
d="M51 727c0 -158.667 32.499 -295.499 97.499 -410.499s156.833 -202.667 275.5 -263s257.334 -90.5 416.001 -90.5c156 0 293.167 30.167 411.5 90.5s210 148.166 275 263.499s97.5 252 97.5 410c0 121.333 -18.667 230 -56 326c-37.333 96.667 -90.333 178 -159 244
c-68.667 66.667 -151.334 117.334 -248.001 152.001s-203.667 52 -321 52c-119.333 0 -227.666 -17.333 -324.999 -52c-96.667 -34.667 -179.667 -85.334 -249 -152.001c-68.667 -66.667 -121.667 -148 -159 -244s-56 -204.667 -56 -326zM460.999 727.001
c0 86.667 12.833 170.333 38.5 251s66.834 147.334 123.501 200.001c57.333 52 129.666 78 216.999 78c85.333 0 156 -26.167 212 -78.5s96.833 -118.833 122.5 -199.5s38.5 -164.334 38.5 -251.001c0 -83.333 -12.667 -165 -38 -245c-26 -79.333 -67 -145 -123 -197
s-126.667 -78 -212 -78c-87.333 0 -159.666 26 -216.999 78c-56.667 52 -97.834 117.833 -123.501 197.5s-38.5 161.167 -38.5 244.5zM970.999 1641h229l-217 286h-293l-217 -286h230l133 145z" />
    <glyph glyph-name="Otilde" unicode="&#xd5;" horiz-adv-x="1669" 
d="M51 727c0 -158.667 32.499 -295.499 97.499 -410.499s156.833 -202.667 275.5 -263s257.334 -90.5 416.001 -90.5c156 0 293.167 30.167 411.5 90.5s210 148.166 275 263.499s97.5 252 97.5 410c0 121.333 -18.667 230 -56 326c-37.333 96.667 -90.333 178 -159 244
c-68.667 66.667 -151.334 117.334 -248.001 152.001s-203.667 52 -321 52c-119.333 0 -227.666 -17.333 -324.999 -52c-96.667 -34.667 -179.667 -85.334 -249 -152.001c-68.667 -66.667 -121.667 -148 -159 -244s-56 -204.667 -56 -326zM460.999 727.001
c0 86.667 12.833 170.333 38.5 251s66.834 147.334 123.501 200.001c57.333 52 129.666 78 216.999 78c85.333 0 156 -26.167 212 -78.5s96.833 -118.833 122.5 -199.5s38.5 -164.334 38.5 -251.001c0 -83.333 -12.667 -165 -38 -245c-26 -79.333 -67 -145 -123 -197
s-126.667 -78 -212 -78c-87.333 0 -159.666 26 -216.999 78c-56.667 52 -97.834 117.833 -123.501 197.5s-38.5 161.167 -38.5 244.5zM1008 1927c0 -35.333 -16.9961 -53.002 -50.9961 -53.002c-30.667 0 -75.334 8.83301 -134.001 26.5s-104.334 26.5 -137.001 26.5
c-70.667 0 -123.167 -29 -157.5 -87s-52.833 -124.333 -55.5 -199h193c0 34 17 51 51 51c21.333 0 42 -2.33301 62 -7c19.333 -4 45.666 -10.667 78.999 -20s58.333 -15.666 75 -18.999s34.667 -5 54 -5c50.667 0 91.667 14 123 42s53.666 63.667 66.999 107
c14 42.667 21.667 88.334 23 137.001h-192z" />
    <glyph glyph-name="Odieresis" unicode="&#xd6;" horiz-adv-x="1669" 
d="M51 727c0 -158.667 32.499 -295.499 97.499 -410.499s156.833 -202.667 275.5 -263s257.334 -90.5 416.001 -90.5c156 0 293.167 30.167 411.5 90.5s210 148.166 275 263.499s97.5 252 97.5 410c0 121.333 -18.667 230 -56 326c-37.333 96.667 -90.333 178 -159 244
c-68.667 66.667 -151.334 117.334 -248.001 152.001s-203.667 52 -321 52c-119.333 0 -227.666 -17.333 -324.999 -52c-96.667 -34.667 -179.667 -85.334 -249 -152.001c-68.667 -66.667 -121.667 -148 -159 -244s-56 -204.667 -56 -326zM460.999 727.001
c0 86.667 12.833 170.333 38.5 251s66.834 147.334 123.501 200.001c57.333 52 129.666 78 216.999 78c85.333 0 156 -26.167 212 -78.5s96.833 -118.833 122.5 -199.5s38.5 -164.334 38.5 -251.001c0 -83.333 -12.667 -165 -38 -245c-26 -79.333 -67 -145 -123 -197
s-126.667 -78 -212 -78c-87.333 0 -159.666 26 -216.999 78c-56.667 52 -97.834 117.833 -123.501 197.5s-38.5 161.167 -38.5 244.5zM509.999 1640h240v242h-240v-242zM925.999 1640h238v242h-238v-242z" />
    <glyph glyph-name="Oslash" unicode="&#xd8;" horiz-adv-x="1669" 
d="M494 504c-18 72.667 -26.998 150.668 -26.998 234.001c0 90 12.167 174.167 36.5 252.5s64.166 142.166 119.499 191.499s127.666 74 216.999 74c92.667 0 163 -24 211 -72zM1180 963.001c23.333 -70 34.999 -148.666 34.999 -235.999
c0 -88.667 -13.333 -172.334 -40 -251.001c-26 -79.333 -67.333 -144 -124 -194s-127 -75 -211 -75c-91.333 0 -161.666 26.667 -210.999 80zM51.001 -36.998l313.999 0.00195312l71 84c121.333 -56 256 -84 404 -84c156 0 293.167 30.167 411.5 90.5
s210 148.166 275 263.499s97.5 252 97.5 410c0 66.667 -6.66699 133 -20 199s-34 128.167 -62 186.5s-63.333 111.5 -106 159.5l188 229h-315l-70 -88c-108 58.667 -241 88 -399 88c-119.333 0 -227.666 -17.333 -324.999 -52
c-96.667 -34.667 -179.667 -85.334 -249 -152.001c-68.667 -66.667 -121.667 -148 -159 -244s-56 -204.667 -56 -326c0 -62 7.16699 -125.5 21.5 -190.5s35.833 -127.333 64.5 -187s63 -111.167 103 -154.5z" />
    <glyph glyph-name="Ugrave" unicode="&#xd9;" horiz-adv-x="1534" 
d="M152 1467v-932c0 -128.667 27.667 -236 83 -322c54.667 -85.333 129.834 -148.333 225.501 -189s205.167 -61 328.5 -61c138 0 248.667 21.667 332 65s143.333 96.333 180 159c37.333 63.333 60.333 123 69 179s13 112.333 13 169v932h-336v-889
c0 -88.667 -9.33301 -160.5 -28 -215.5s-46.334 -94.667 -83.001 -119s-83.667 -36.5 -141 -36.5c-64 0 -114.667 14.833 -152 44.5s-64 74.5 -80 134.5s-24 137.667 -24 233v848h-387zM738 1641h229l-217 286h-297z" />
    <glyph glyph-name="Uacute" unicode="&#xda;" horiz-adv-x="1534" 
d="M152 1467v-932c0 -128.667 27.667 -236 83 -322c54.667 -85.333 129.834 -148.333 225.501 -189s205.167 -61 328.5 -61c138 0 248.667 21.667 332 65s143.333 96.333 180 159c37.333 63.333 60.333 123 69 179s13 112.333 13 169v932h-336v-889
c0 -88.667 -9.33301 -160.5 -28 -215.5s-46.334 -94.667 -83.001 -119s-83.667 -36.5 -141 -36.5c-64 0 -114.667 14.833 -152 44.5s-64 74.5 -80 134.5s-24 137.667 -24 233v848h-387zM568 1641h231l291 286h-301z" />
    <glyph glyph-name="Ucircumflex" unicode="&#xdb;" horiz-adv-x="1534" 
d="M152 1467v-932c0 -128.667 27.667 -236 83 -322c54.667 -85.333 129.834 -148.333 225.501 -189s205.167 -61 328.5 -61c138 0 248.667 21.667 332 65s143.333 96.333 180 159c37.333 63.333 60.333 123 69 179s13 112.333 13 169v932h-336v-889
c0 -88.667 -9.33301 -160.5 -28 -215.5s-46.334 -94.667 -83.001 -119s-83.667 -36.5 -141 -36.5c-64 0 -114.667 14.833 -152 44.5s-64 74.5 -80 134.5s-24 137.667 -24 233v848h-387zM901 1641h232l-219 286h-289l-221 -286h231l133 145z" />
    <glyph glyph-name="Udieresis" unicode="&#xdc;" horiz-adv-x="1534" 
d="M152 1467v-932c0 -128.667 27.667 -236 83 -322c54.667 -85.333 129.834 -148.333 225.501 -189s205.167 -61 328.5 -61c138 0 248.667 21.667 332 65s143.333 96.333 180 159c37.333 63.333 60.333 123 69 179s13 112.333 13 169v932h-336v-889
c0 -88.667 -9.33301 -160.5 -28 -215.5s-46.334 -94.667 -83.001 -119s-83.667 -36.5 -141 -36.5c-64 0 -114.667 14.833 -152 44.5s-64 74.5 -80 134.5s-24 137.667 -24 233v848h-387zM445 1641h238l-1 241h-237v-241zM855 1641h243v241h-243v-241z" />
    <glyph glyph-name="Yacute" unicode="&#xdd;" horiz-adv-x="1448" 
d="M527 0h387v619l493 848h-276l-338 -582l-334 582h-422l490 -848v-619zM527 1641h229l289 286h-303z" />
    <glyph glyph-name="Thorn" unicode="&#xde;" horiz-adv-x="1309" 
d="M164 0l362.999 -0.000976562v297h211c104.667 0 195.334 21.5 272.001 64.5s134.667 102.833 174 179.5s59 164 59 262c0 138.667 -36.5 238.834 -109.5 300.501s-180.167 92.5 -321.5 92.5h-285v271h-363v-433v-1034zM526.999 954.999h116
c64.667 0 116.667 -14.333 156 -43s59 -74 59 -136c0 -75.333 -16.833 -132.333 -50.5 -171s-74.167 -63.5 -121.5 -74.5s-100.333 -16.5 -159 -16.5v441z" />
    <glyph glyph-name="germandbls" unicode="&#xdf;" horiz-adv-x="1448" 
d="M164 0h385.001v111v1036c0 46.667 2.66699 85 8 115s18.5 54.833 39.5 74.5s53.833 29.5 98.5 29.5c40 0 73.333 -10 100 -30c27.333 -20 41 -49.667 41 -89c0 -36 -7.33301 -70.333 -22 -103s-36.334 -72.334 -65.001 -119.001s-49.834 -86 -63.501 -118
s-20.5 -66.667 -20.5 -104c0 -61.333 19 -116.166 57 -164.499s82.667 -91.5 134 -129.5l155 -118c52.667 -40.667 79 -75.334 79 -104.001c0 -32.667 -14.333 -56.167 -43 -70.5s-59.334 -21.5 -92.001 -21.5c-96.667 0 -181 23.667 -253 71v-241
c120 -33.333 227.333 -50 322 -50c72.667 0 140 14 202 42c61.333 26.667 110.333 66.667 147 120s55 117 55 191c0 82.667 -20.667 152.667 -62 210s-105.333 117.5 -192 180.5s-143 105.833 -169 128.5c-25.333 22.667 -38 54.334 -38 95.001c0 32 7.33301 61.167 22 87.5
s37.334 59.333 68.001 99s53.667 73.834 69 102.501s23 60 23 94c0 77.333 -37.5 139.666 -112.5 186.999s-197.167 71 -366.5 71c-137.333 0 -243.666 -25.667 -318.999 -77s-125.333 -111.5 -150 -180.5s-37 -138.833 -37 -209.5v-82v-1034z" />
    <glyph glyph-name="agrave" unicode="&#xe0;" horiz-adv-x="1219" 
d="M690 305c-18 -23.333 -44.333 -43.5 -79 -60.5s-67.667 -25.5 -99 -25.5c-69.333 0 -104 37.667 -104 113c0 92.667 68.333 139 205 139h77v-166zM1153 217h-35c-29.333 0 -47.833 10.167 -55.5 30.5s-11.5 47.166 -11.5 80.499v424c0 80 -14 147 -42 201
c-27.333 54 -78 96 -152 126c-74 30.667 -176.667 46 -308 46c-150.667 0 -286.334 -23.333 -407.001 -70v-244c101.333 61.333 220 92 356 92c66 0 114.5 -11.667 145.5 -35s46.5 -60.666 46.5 -111.999v-66h-200c-56 0 -118.5 -11.333 -187.5 -34s-129.5 -63 -181.5 -121
s-78 -136 -78 -234c0 -65.333 16.333 -122.5 49 -171.5s75.834 -86.667 129.501 -113s110.167 -39.5 169.5 -39.5c115.333 0 207 41.333 275 124h24c40.667 -85.333 129 -128 265 -128c64.667 0 130.667 9 198 27v217zM580 1272h231l-215 289h-303z" />
    <glyph glyph-name="aacute" unicode="&#xe1;" horiz-adv-x="1219" 
d="M690 305c-18 -23.333 -44.333 -43.5 -79 -60.5s-67.667 -25.5 -99 -25.5c-69.333 0 -104 37.667 -104 113c0 92.667 68.333 139 205 139h77v-166zM1153 217h-35c-29.333 0 -47.833 10.167 -55.5 30.5s-11.5 47.166 -11.5 80.499v424c0 80 -14 147 -42 201
c-27.333 54 -78 96 -152 126c-74 30.667 -176.667 46 -308 46c-150.667 0 -286.334 -23.333 -407.001 -70v-244c101.333 61.333 220 92 356 92c66 0 114.5 -11.667 145.5 -35s46.5 -60.666 46.5 -111.999v-66h-200c-56 0 -118.5 -11.333 -187.5 -34s-129.5 -63 -181.5 -121
s-78 -136 -78 -234c0 -65.333 16.333 -122.5 49 -171.5s75.834 -86.667 129.501 -113s110.167 -39.5 169.5 -39.5c115.333 0 207 41.333 275 124h24c40.667 -85.333 129 -128 265 -128c64.667 0 130.667 9 198 27v217zM412 1272h232l290 289h-303z" />
    <glyph glyph-name="acircumflex" unicode="&#xe2;" horiz-adv-x="1219" 
d="M690 305c-18 -23.333 -44.333 -43.5 -79 -60.5s-67.667 -25.5 -99 -25.5c-69.333 0 -104 37.667 -104 113c0 92.667 68.333 139 205 139h77v-166zM1153 217h-35c-29.333 0 -47.833 10.167 -55.5 30.5s-11.5 47.166 -11.5 80.499v424c0 80 -14 147 -42 201
c-27.333 54 -78 96 -152 126c-74 30.667 -176.667 46 -308 46c-150.667 0 -286.334 -23.333 -407.001 -70v-244c101.333 61.333 220 92 356 92c66 0 114.5 -11.667 145.5 -35s46.5 -60.666 46.5 -111.999v-66h-200c-56 0 -118.5 -11.333 -187.5 -34s-129.5 -63 -181.5 -121
s-78 -136 -78 -234c0 -65.333 16.333 -122.5 49 -171.5s75.834 -86.667 129.501 -113s110.167 -39.5 169.5 -39.5c115.333 0 207 41.333 275 124h24c40.667 -85.333 129 -128 265 -128c64.667 0 130.667 9 198 27v217zM746 1272h229l-215 289h-295l-217 -289h229l136 141z
" />
    <glyph glyph-name="atilde" unicode="&#xe3;" horiz-adv-x="1219" 
d="M690 305c-18 -23.333 -44.333 -43.5 -79 -60.5s-67.667 -25.5 -99 -25.5c-69.333 0 -104 37.667 -104 113c0 92.667 68.333 139 205 139h77v-166zM1153 217h-35c-29.333 0 -47.833 10.167 -55.5 30.5s-11.5 47.166 -11.5 80.499v424c0 80 -14 147 -42 201
c-27.333 54 -78 96 -152 126c-74 30.667 -176.667 46 -308 46c-150.667 0 -286.334 -23.333 -407.001 -70v-244c101.333 61.333 220 92 356 92c66 0 114.5 -11.667 145.5 -35s46.5 -60.666 46.5 -111.999v-66h-200c-56 0 -118.5 -11.333 -187.5 -34s-129.5 -63 -181.5 -121
s-78 -136 -78 -234c0 -65.333 16.333 -122.5 49 -171.5s75.834 -86.667 129.501 -113s110.167 -39.5 169.5 -39.5c115.333 0 207 41.333 275 124h24c40.667 -85.333 129 -128 265 -128c64.667 0 130.667 9 198 27v217zM785 1561c0 -34 -18.665 -51 -55.998 -51
c-28.667 0 -72.334 8.33301 -131.001 25c-59.333 17.333 -105 26 -137 26c-70.667 0 -122.834 -28.833 -156.501 -86.5s-52.5 -125.167 -56.5 -202.5h197c0 35.333 16.333 53 49 53s78.334 -8.83301 137.001 -26.5s103 -26.5 133 -26.5c50.667 0 91.334 14 122.001 42
c31.333 28 53.666 63.167 66.999 105.5s20.666 89.5 21.999 141.5h-190z" />
    <glyph glyph-name="adieresis" unicode="&#xe4;" horiz-adv-x="1219" 
d="M691 305c-18.667 -23.333 -45.333 -43.5 -80 -60.5s-67.667 -25.5 -99 -25.5c-69.333 0 -104 37.667 -104 113c0 92.667 68.333 139 205 139h78v-166zM1153 217h-35.001c-29.333 0 -47.833 10.167 -55.5 30.5s-11.5 47.166 -11.5 80.499v424c0 80 -14 147 -42 201
c-27.333 54 -78 96 -152 126c-74 30.667 -176.667 46 -308 46c-150.667 0 -286.334 -23.333 -407.001 -70v-244c101.333 61.333 220 92 356 92c66 0 114.667 -11.667 146 -35s47 -60.666 47 -111.999v-66h-201c-55.333 0 -117.666 -11.333 -186.999 -34
c-68.667 -22.667 -129.167 -63 -181.5 -121s-78.5 -136 -78.5 -234c0 -65.333 16.333 -122.5 49 -171.5s75.834 -86.667 129.501 -113s110.167 -39.5 169.5 -39.5c115.333 0 207 41.333 275 124h24c40.667 -85.333 129 -128 265 -128c64.667 0 130.667 9 198 27v217z
M287 1272h240v242h-240v-242zM699 1272h243v242h-243v-242z" />
    <glyph glyph-name="aring" unicode="&#xe5;" horiz-adv-x="1219" 
d="M690 305c-18 -23.333 -44.333 -43.5 -79 -60.5s-67.667 -25.5 -99 -25.5c-69.333 0 -104 37.667 -104 113c0 92.667 68.333 139 205 139h77v-166zM1153 217h-35c-29.333 0 -47.833 10.167 -55.5 30.5s-11.5 47.166 -11.5 80.499v424c0 80 -14 147 -42 201
c-27.333 54 -78 96 -152 126c-74 30.667 -176.667 46 -308 46c-150.667 0 -286.334 -23.333 -407.001 -70v-244c101.333 61.333 220 92 356 92c66 0 114.5 -11.667 145.5 -35s46.5 -60.666 46.5 -111.999v-66h-200c-56 0 -118.5 -11.333 -187.5 -34s-129.5 -63 -181.5 -121
s-78 -136 -78 -234c0 -65.333 16.333 -122.5 49 -171.5s75.834 -86.667 129.501 -113s110.167 -39.5 169.5 -39.5c115.333 0 207 41.333 275 124h24c40.667 -85.333 129 -128 265 -128c64.667 0 130.667 9 198 27v217zM455 1426c0 -47.333 15.833 -84.166 47.5 -110.499
s69.167 -39.5 112.5 -39.5c41.333 0 77.833 13.167 109.5 39.5s47.5 63.166 47.5 110.499c0 46.667 -16 83.5 -48 110.5s-69 40.5 -111 40.5c-42.667 0 -79.667 -13.333 -111 -40s-47 -63.667 -47 -111zM549 1426c0 20 5.83301 35.1689 17.5 45.502s26.5 15.5 44.5 15.5
c17.333 0 32.166 -5.16699 44.499 -15.5s18.5 -25.5 18.5 -45.5c0 -18.667 -6.16699 -33.334 -18.5 -44.001s-27.166 -16 -44.499 -16c-18 0 -32.833 5.16699 -44.5 15.5s-17.5 25.166 -17.5 44.499z" />
    <glyph glyph-name="ae" unicode="&#xe6;" horiz-adv-x="1807" 
d="M1041 658c6 64.667 23.667 122 53 172c29.333 48.667 72.333 73 129 73c94 0 141 -81.667 141 -245h-323zM690 690l-200 -0.00292969c-56 0 -118.5 -11.333 -187.5 -34s-129.5 -63 -181.5 -121s-78 -136 -78 -234c0 -63.333 16 -120 48 -170
c31.333 -49.333 73.666 -87.666 126.999 -114.999s111 -41 173 -41c49.333 0 97.833 8.83301 145.5 26.5s91 42.334 130 74.001s71.5 68.834 97.5 111.501c102 -145.333 270.667 -218 506 -218c130 0 283 22.667 459 68v258c-130.667 -50.667 -250.334 -76 -359.001 -76
c-185.333 0 -291.666 82 -318.999 246h678c0 102.667 -7 193 -21 271c-13.333 77.333 -37.166 145.166 -71.499 203.499s-83 103.833 -146 136.5s-142.5 49 -238.5 49c-144 0 -262.333 -39.667 -355 -119c-107.333 79.333 -239 119 -395 119c-118 0 -238 -23.333 -360 -70
v-244c101.333 61.333 220 92 356 92c66 0 114.5 -11.667 145.5 -35s46.5 -60.666 46.5 -111.999v-66zM690 304.997c-18 -23.333 -44.333 -43.5 -79 -60.5s-67.667 -25.5 -99 -25.5c-69.333 0 -104 37.667 -104 113c0 92.667 68.333 139 205 139h77v-166z" />
    <glyph glyph-name="ccedilla" unicode="&#xe7;" horiz-adv-x="1082" 
d="M1020 266c-79.333 -32.667 -151.667 -49.001 -217 -49.001c-110.667 0 -192.667 29.667 -246 89s-80 145.666 -80 258.999c0 86 21.667 161.5 65 226.5s105.666 97.5 186.999 97.5c74 0 171 -24.667 291 -74v258c-201.333 34.667 -318 52 -350 52
c-157.333 0 -281 -31.667 -371 -95s-151.667 -138.666 -185 -225.999c-32.667 -87.333 -49 -173 -49 -257c0 -83.333 16.5 -168.166 49.5 -254.499s94.5 -160.5 184.5 -222.5c90 -63.333 213.667 -95 371 -95c124.667 0 241.334 12.667 350.001 38v253zM359.999 -361.001
c55.333 -17.333 116.333 -25.999 183 -25.999c52 0 99.333 10.667 142 32c43.333 22 65 57 65 105c0 38 -16.667 68.333 -50 91c-32.667 22 -70 35.333 -112 40l78 119h-152l-111 -137c32 -2.66699 62 -10.667 90 -24c27.333 -12.667 41 -31.334 41 -56.001
c0 -37.333 -27.667 -56 -83 -56c-28 0 -58.333 3.66699 -91 11v-99z" />
    <glyph glyph-name="egrave" unicode="&#xe8;" horiz-adv-x="1219" 
d="M1149 465c0 136 -13.1689 252.331 -39.502 348.998s-74.833 172.667 -145.5 228s-168.667 83 -294 83c-157.333 0 -281 -31.667 -371 -95s-151.667 -138.666 -185 -225.999c-32.667 -87.333 -49 -173 -49 -257c0 -83.333 16.5 -168.166 49.5 -254.499
s94.5 -160.5 184.5 -222.5c90 -63.333 213.667 -95 371 -95c162.667 0 322.334 20.667 479.001 62v258c-137.333 -50.667 -257.333 -76 -360 -76c-185.333 0 -290.666 82 -315.999 246h676zM460.998 657.998c18.667 163.333 79.333 245 182 245c56 0 94.333 -24.667 115 -74
s31 -106.333 31 -171h-328zM579.997 1272h231l-215 289h-303z" />
    <glyph glyph-name="eacute" unicode="&#xe9;" horiz-adv-x="1219" 
d="M1149 465c0 136 -13.1689 252.331 -39.502 348.998s-74.833 172.667 -145.5 228s-168.667 83 -294 83c-157.333 0 -281 -31.667 -371 -95s-151.667 -138.666 -185 -225.999c-32.667 -87.333 -49 -173 -49 -257c0 -83.333 16.5 -168.166 49.5 -254.499
s94.5 -160.5 184.5 -222.5c90 -63.333 213.667 -95 371 -95c162.667 0 322.334 20.667 479.001 62v258c-137.333 -50.667 -257.333 -76 -360 -76c-185.333 0 -290.666 82 -315.999 246h676zM460.998 657.998c18.667 163.333 79.333 245 182 245c56 0 94.333 -24.667 115 -74
s31 -106.333 31 -171h-328zM410.997 1272h232l291 289h-303z" />
    <glyph glyph-name="ecircumflex" unicode="&#xea;" horiz-adv-x="1219" 
d="M1149 465c0 136 -13.1689 252.331 -39.502 348.998s-74.833 172.667 -145.5 228s-168.667 83 -294 83c-157.333 0 -281 -31.667 -371 -95s-151.667 -138.666 -185 -225.999c-32.667 -87.333 -49 -173 -49 -257c0 -83.333 16.5 -168.166 49.5 -254.499
s94.5 -160.5 184.5 -222.5c90 -63.333 213.667 -95 371 -95c162.667 0 322.334 20.667 479.001 62v258c-137.333 -50.667 -257.333 -76 -360 -76c-185.333 0 -290.666 82 -315.999 246h676zM460.998 657.998c18.667 163.333 79.333 245 182 245c56 0 94.333 -24.667 115 -74
s31 -106.333 31 -171h-328zM745.997 1272h229l-215 289h-295l-217 -289h229l136 141z" />
    <glyph glyph-name="edieresis" unicode="&#xeb;" horiz-adv-x="1219" 
d="M1149 465c0 136 -13.1689 252.331 -39.502 348.998s-74.833 172.667 -145.5 228s-168.667 83 -294 83c-157.333 0 -281 -31.667 -371 -95s-151.333 -138.666 -184 -225.999s-49 -173 -49 -257c0 -83.333 16.333 -168.166 49 -254.499s94 -160.5 184 -222.5
c90 -63.333 213.667 -95 371 -95c162.667 0 322.334 20.667 479.001 62v258c-137.333 -50.667 -257.333 -76 -360 -76c-185.333 0 -290.666 82 -315.999 246h676zM460.998 657.998c18.667 163.333 79.333 245 182 245c56 0 94.333 -24.667 115 -74s31 -106.333 31 -171h-328
zM286.997 1272h240v242h-240v-242zM698.997 1272h243v242h-243v-242z" />
    <glyph glyph-name="igrave" unicode="&#xec;" horiz-adv-x="674" 
d="M146 0h385v60v1042h-385v-68v-1034zM305 1272h234l-221 289h-301z" />
    <glyph glyph-name="iacute" unicode="&#xed;" horiz-adv-x="674" 
d="M146 0h385v60v1042h-385v-68v-1034zM137 1272h232l289 289h-301z" />
    <glyph glyph-name="icircumflex" unicode="&#xee;" horiz-adv-x="674" 
d="M146 0h385v60v1042h-385v-68v-1034zM469 1272h230l-217 289h-289l-217 -289h230l132 141z" />
    <glyph glyph-name="idieresis" unicode="&#xef;" horiz-adv-x="674" 
d="M146 0h385v60v1042h-385v-68v-1034zM13 1272h241v242h-241v-242zM424 1272h238v242h-238v-242z" />
    <glyph glyph-name="eth" unicode="&#xf0;" horiz-adv-x="1309" 
d="M670 828c68 0 118.332 -30.334 150.999 -91.001c33.333 -60.667 50 -128 50 -202c0 -50.667 -6 -101.667 -18 -153c-13.333 -52 -35.166 -96.167 -65.499 -132.5s-69.5 -54.5 -117.5 -54.5c-49.333 0 -89 18.167 -119 54.5s-51.167 80.333 -63.5 132
s-18.5 102.834 -18.5 153.501c0 44.667 6.83301 89.667 20.5 135s35.5 83 65.5 113s68.333 45 115 45zM505.999 1252c118.667 -65.333 192.002 -137.998 220.002 -217.998c-40.667 7.33301 -77.667 11 -111 11c-74 0 -144.667 -12.333 -212 -37
c-66.667 -24.667 -126.5 -60.334 -179.5 -107.001s-94.667 -103.167 -125 -169.5s-45.5 -138.833 -45.5 -217.5c0 -60.667 11 -122.334 33 -185.001s56.667 -121 104 -175s109.333 -97 186 -129c76 -33.333 165 -50 267 -50c138 0 253.333 31.333 346 94
c92 61.333 159.833 140.333 203.5 237s65.5 196.667 65.5 300c0 88 -13 174.833 -39 260.5s-63.5 167.167 -112.5 244.5s-107.333 145.666 -175 204.999s-141.167 105.333 -220.5 138l194 191l-133 141l-266 -262c-63.333 14 -140.833 23.667 -232.5 29
s-165.834 8 -222.501 8v-219c27.333 0 52.666 -0.666992 75.999 -2s49 -2.66602 77 -3.99902l105 -7l-186 -182l135 -141z" />
    <glyph glyph-name="ntilde" unicode="&#xf1;" 
d="M535 1102l-24 -211h24c34 70.667 82 127.334 144 170.001s130.667 64 206 64c108 0 189.667 -31.833 245 -95.5s83 -146.5 83 -248.5v-781h-389v658c0 52 -5.33301 94 -16 126s-37 48 -79 48c-34.667 0 -68.667 -14.333 -102 -43
c-31.333 -26.667 -62 -66.334 -92 -119.001v-670h-389v1102h389zM848 1561h192.999c-2 -78.667 -19.667 -146.5 -53 -203.5s-85.333 -85.5 -156 -85.5c-30 0 -75.167 8.83301 -135.5 26.5s-107.5 26.5 -141.5 26.5c-30 0 -45 -17.667 -45 -53h-192
c2.66699 78 20.334 145.667 53.001 203s84.667 86 156 86c20 0 67.167 -8.5 141.5 -25.5s117.833 -25.5 130.5 -25.5c32.667 0 49 17 49 51z" />
    <glyph glyph-name="ograve" unicode="&#xf2;" horiz-adv-x="1309" 
d="M654 -25c158 0 282.332 31.668 372.999 95.001c90.667 62 152.334 136.333 185.001 223c33.333 86 50 170.667 50 254c0 84 -16.5 169.667 -49.5 257s-94.833 162.666 -185.5 225.999s-215 95 -373 95c-156.667 0 -280 -31.833 -370 -95.5s-151.333 -139 -184 -226
s-49 -172.5 -49 -256.5c0 -83.333 16.333 -168 49 -254s94 -160.5 184 -223.5s213.333 -94.5 370 -94.5zM460.999 547.001c0 81.333 15.333 161 46 239s79.667 117 147 117c69.333 0 119.666 -38.667 150.999 -116s47 -157.333 47 -240c0 -80.667 -15.667 -159.5 -47 -236.5
s-81.666 -115.5 -150.999 -115.5c-67.333 0 -116.333 39 -147 117s-46 156.333 -46 235zM628.999 1272h225l-215 289h-301z" />
    <glyph glyph-name="oacute" unicode="&#xf3;" horiz-adv-x="1309" 
d="M654 -25c158 0 282.332 31.668 372.999 95.001c90.667 62 152.334 136.333 185.001 223c33.333 86 50 170.667 50 254c0 84 -16.5 169.667 -49.5 257s-94.833 162.666 -185.5 225.999s-215 95 -373 95c-156.667 0 -280 -31.833 -370 -95.5s-151.333 -139 -184 -226
s-49 -172.5 -49 -256.5c0 -83.333 16.333 -168 49 -254s94 -160.5 184 -223.5s213.333 -94.5 370 -94.5zM460.999 547.001c0 81.333 15.333 161 46 239s79.667 117 147 117c69.333 0 119.666 -38.667 150.999 -116s47 -157.333 47 -240c0 -80.667 -15.667 -159.5 -47 -236.5
s-81.666 -115.5 -150.999 -115.5c-67.333 0 -116.333 39 -147 117s-46 156.333 -46 235zM458.999 1272h227l289 289h-301z" />
    <glyph glyph-name="ocircumflex" unicode="&#xf4;" horiz-adv-x="1309" 
d="M654 -25c158 0 282.332 31.668 372.999 95.001c90.667 62 152.334 136.333 185.001 223c33.333 86 50 170.667 50 254c0 84 -16.5 169.667 -49.5 257s-94.833 162.666 -185.5 225.999s-215 95 -373 95c-156.667 0 -280 -31.833 -370 -95.5s-151.333 -139 -184 -226
s-49 -172.5 -49 -256.5c0 -83.333 16.333 -168 49 -254s94 -160.5 184 -223.5s213.333 -94.5 370 -94.5zM460.999 547.001c0 81.333 15.333 161 46 239s79.667 117 147 117c69.333 0 119.666 -38.667 150.999 -116s47 -157.333 47 -240c0 -80.667 -15.667 -159.5 -47 -236.5
s-81.666 -115.5 -150.999 -115.5c-67.333 0 -116.333 39 -147 117s-46 156.333 -46 235zM792.999 1272h227l-217 289h-293l-217 -289h229l132 141z" />
    <glyph glyph-name="otilde" unicode="&#xf5;" horiz-adv-x="1309" 
d="M654 -25c158 0 282.332 31.668 372.999 95.001c90.667 62 152.334 136.333 185.001 223c33.333 86 50 170.667 50 254c0 84 -16.5 169.667 -49.5 257s-94.833 162.666 -185.5 225.999s-215 95 -373 95c-156.667 0 -280 -31.833 -370 -95.5s-151.333 -139 -184 -226
s-49 -172.5 -49 -256.5c0 -83.333 16.333 -168 49 -254s94 -160.5 184 -223.5s213.333 -94.5 370 -94.5zM460.999 547.001c0 81.333 15.333 161 46 239s79.667 117 147 117c69.333 0 119.666 -38.667 150.999 -116s47 -157.333 47 -240c0 -80.667 -15.667 -159.5 -47 -236.5
s-81.666 -115.5 -150.999 -115.5c-67.333 0 -116.333 39 -147 117s-46 156.333 -46 235zM827.999 1561c0 -34 -17.334 -51 -52.001 -51c-28 0 -71.667 8.33301 -131 25c-60 17.333 -106.333 26 -139 26c-70.667 0 -123.167 -29 -157.5 -87s-52.833 -125.333 -55.5 -202h193
c0 35.333 17.667 53 53 53c32 0 77 -8.66699 135 -26c58.667 -18 103 -27 133 -27c72.667 0 125.834 28.333 159.501 85s51.5 124.667 53.5 204h-192z" />
    <glyph glyph-name="odieresis" unicode="&#xf6;" horiz-adv-x="1309" 
d="M654 -25c158 0 282.332 31.668 372.999 95.001c90.667 62 152.334 136.333 185.001 223c33.333 86 50 170.667 50 254c0 84 -16.5 169.667 -49.5 257s-94.833 162.666 -185.5 225.999s-215 95 -373 95c-156.667 0 -280 -31.833 -370 -95.5s-151.333 -139 -184 -226
s-49 -172.5 -49 -256.5c0 -83.333 16.333 -168 49 -254s94 -160.5 184 -223.5s213.333 -94.5 370 -94.5zM460.999 547.001c0 81.333 15.333 161 46 239s79.667 117 147 117c69.333 0 119.666 -38.667 150.999 -116s47 -157.333 47 -240c0 -80.667 -15.667 -159.5 -47 -236.5
s-81.666 -115.5 -150.999 -115.5c-67.333 0 -116.333 39 -147 117s-46 156.333 -46 235zM329.999 1272h238v242h-238v-242zM741.999 1272h241v242h-241v-242z" />
    <glyph glyph-name="divide" unicode="&#xf7;" 
d="M535 0h293v295h-293v-295zM103 475h133h1026v220h-135h-1024v-220zM535 881h293v291h-293v-291z" />
    <glyph glyph-name="oslash" unicode="&#xf8;" horiz-adv-x="1309" 
d="M41 -25l280.999 -0.000976562l43 50c83.333 -33.333 179.666 -50 288.999 -50c158 0 282.333 31.667 373 95c90.667 62 152.334 136.333 185.001 223c33.333 86 50 170.667 50 254c0 82 -10.667 153.833 -32 215.5s-55.666 122.834 -102.999 183.501l147 179h-283
l-40 -56c-76 37.333 -175 56 -297 56c-156.667 0 -280 -31.833 -370 -95.5s-151.333 -139 -184 -226s-49 -172.5 -49 -256.5c0 -157.333 46 -288.333 138 -393zM464.999 483.999l-4 4c3.33301 78.667 9.5 147 18.5 205s27 107.5 54 148.5s67.167 61.5 120.5 61.5
c46 0 82.667 -17 110 -51zM847.999 618.999l4.00098 -4.00098c0 -59.333 -4.5 -120.166 -13.5 -182.499s-28.333 -117.5 -58 -165.5s-71.834 -72 -126.501 -72c-42.667 0 -79 17 -109 51z" />
    <glyph glyph-name="ugrave" unicode="&#xf9;" 
d="M819 0h385.001v60v1042h-385v-674c-62.667 -104.667 -127.334 -157 -194.001 -157c-43.333 0 -70.666 15 -81.999 45c-10.667 29.333 -16 71 -16 125v661h-385v-786c0 -100 26.833 -181.833 80.5 -245.5s133.167 -95.5 238.5 -95.5c78.667 0 149.167 21 211.5 63
s111.166 98.333 146.499 169h25zM647.001 1272h232l-221 289h-301z" />
    <glyph glyph-name="uacute" unicode="&#xfa;" 
d="M819 0h385.001v60v1042h-385v-674c-62.667 -104.667 -127.334 -157 -194.001 -157c-43.333 0 -70.666 15 -81.999 45c-10.667 29.333 -16 71 -16 125v661h-385v-786c0 -100 26.833 -181.833 80.5 -245.5s133.167 -95.5 238.5 -95.5c78.667 0 149.167 21 211.5 63
s111.166 98.333 146.499 169h25zM477.001 1272h234l289 289h-301z" />
    <glyph glyph-name="ucircumflex" unicode="&#xfb;" 
d="M819 0h385.001v60v1042h-385v-674c-62.667 -104.667 -127.334 -157 -194.001 -157c-43.333 0 -70.666 15 -81.999 45c-10.667 29.333 -16 71 -16 125v661h-385v-786c0 -100 26.833 -181.833 80.5 -245.5s133.167 -95.5 238.5 -95.5c78.667 0 149.167 21 211.5 63
s111.166 98.333 146.499 169h25zM811.001 1272h230l-217 289h-289l-217 -289h227l133 141z" />
    <glyph glyph-name="udieresis" unicode="&#xfc;" 
d="M819 0h385.001v60v1042h-385v-674c-62.667 -104.667 -127.334 -157 -194.001 -157c-43.333 0 -70.666 15 -81.999 45c-10.667 29.333 -16 71 -16 125v661h-385v-786c0 -100 26.833 -181.833 80.5 -245.5s133.167 -95.5 238.5 -95.5c78.667 0 149.167 21 211.5 63
s111.166 98.333 146.499 169h25zM353.001 1272h244l-1 242h-243v-242zM764.001 1272h240v242h-240v-242z" />
    <glyph glyph-name="yacute" unicode="&#xfd;" horiz-adv-x="1262" 
d="M142 -387h401l217 447l487 1042h-268l-305 -641l-246 641h-420l29 -68l404 -1034zM461 1272h229l289 289h-301z" />
    <glyph glyph-name="thorn" unicode="&#xfe;" 
d="M150 -387l385.001 -0.000976562v387l-25 101h25c37.333 -30 70.333 -54 99 -72s59 -31.667 91 -41c32 -8.66699 70.333 -13 115 -13c105.333 0 193 28.5 263 85.5s121.167 130.833 153.5 221.5s48.5 188 48.5 292c0 99.333 -14 190.333 -42 273
c-28.667 83.333 -74.667 150.333 -138 201c-64 51.333 -146 77 -246 77c-50 0 -97.667 -9.66699 -143 -29c-44.667 -18.667 -84.334 -45.667 -119.001 -81c-34 -35.333 -61.333 -76.666 -82 -123.999h-25l25 211v289h-385v-746v-1032zM535.001 677.999
c20 41.333 45.334 77.334 76.001 108.001c31.333 30.667 66.666 46 105.999 46c64.667 0 109.5 -29.333 134.5 -88s37.5 -125.667 37.5 -201c0 -45.333 -5.66699 -93.833 -17 -145.5s-31 -96.334 -59 -134.001s-64.667 -56.5 -110 -56.5c-70 0 -126 35 -168 105v366z" />
    <glyph glyph-name="ydieresis" unicode="&#xff;" horiz-adv-x="1262" 
d="M142 -387h401l217 447l487 1042h-268l-305 -641l-246 641h-420l29 -68l404 -1034zM330 1272h238v242h-238v-242zM738 1272h241v242h-241v-242z" />
    <glyph glyph-name="OE" unicode="&#x152;" horiz-adv-x="2167" 
d="M2110 0l-0.000976562 241.001h-653v404h493v220h-493l-1 356h603l-1 246h-997v-17c-60.667 34 -134.334 51 -221.001 51c-119.333 0 -227.666 -17.333 -324.999 -52c-96.667 -34.667 -179.667 -85.334 -249 -152.001c-68.667 -66.667 -121.667 -148 -159 -244
s-56 -204.667 -56 -326c0 -158.667 32.5 -295.5 97.5 -410.5s156.833 -202.667 275.5 -263s257.334 -90.5 416.001 -90.5c80 0 153.667 18 221 54v-17h16h1033zM1061 594.001c0 -82 -3.66699 -148.835 -11 -200.502s-27.166 -95.667 -59.499 -132s-82.5 -54.5 -150.5 -54.5
c-87.333 0 -159.666 26 -216.999 78c-56.667 52 -97.834 117.833 -123.501 197.5s-38.5 161.167 -38.5 244.5c0 86.667 12.833 170.334 38.5 251.001s66.834 147.334 123.501 200.001c57.333 52 129.666 78 216.999 78c68 0 118.167 -18.167 150.5 -54.5
s52.166 -80 59.499 -131s11 -116.833 11 -197.5v-279z" />
    <glyph glyph-name="oe" unicode="&#x153;" horiz-adv-x="1946" 
d="M1188 658c18.667 163.333 78.667 245 180 245c56 0 94.333 -24.667 115 -74s31 -106.333 31 -171h-326zM1874 465c0 102 -6.66699 192 -20 270c-13.333 78.667 -37.166 147 -71.499 205s-83.166 103.333 -146.499 136s-143.666 49 -240.999 49
c-130.667 0 -248.667 -50.667 -354 -152c-54 45.333 -117.833 82 -191.5 110s-138.834 42 -195.501 42c-156.667 0 -280 -31.833 -370 -95.5s-151.333 -139 -184 -226s-49 -172.5 -49 -256.5c0 -83.333 16.333 -168 49 -254s94 -160.5 184 -223.5s213.333 -94.5 370 -94.5
c75.333 0 140.166 9.5 194.499 28.5s110.166 52.167 167.499 99.5c117.333 -86.667 264 -130 440 -130c120.667 0 260 21.333 418 64v258c-130.667 -50.667 -248.667 -76 -354 -76c-187.333 0 -294 82 -320 246h674zM461 547c0 81.333 15.333 161 46 239s79.667 117 147 117
c69.333 0 119.666 -38.667 150.999 -116s47 -157.333 47 -240c0 -80.667 -15.667 -159.5 -47 -236.5s-81.666 -115.5 -150.999 -115.5c-67.333 0 -116.333 39 -147 117s-46 156.333 -46 235z" />
    <glyph glyph-name="florin" unicode="&#x192;" 
d="M228 -295l401.001 0.000976562l187 969h205v217h-162l22 131c10.667 59.333 23.667 107.333 39 144s38.5 65.5 69.5 86.5s73.833 31.5 128.5 31.5c48 0 122.667 -13.667 224 -41v246l-80 6c-18 1.33301 -40.333 2.66602 -67 3.99902s-47.334 2 -62.001 2
c-142 0 -259 -26.5 -351 -79.5s-162.667 -124.5 -212 -214.5c-48.667 -90.667 -84.667 -196 -108 -316h-168v-217h131z" />
    <glyph glyph-name="circumflex" unicode="&#x2c6;" horiz-adv-x="1309" 
d="M793 1272h227l-217 289h-293l-217 -289h229l132 141z" />
    <glyph glyph-name="tilde" unicode="&#x2dc;" horiz-adv-x="1309" 
d="M828 1561c0 -34 -17.334 -51 -52.001 -51c-28 0 -71.667 8.33301 -131 25c-60 17.333 -106.333 26 -139 26c-70.667 0 -123.167 -29 -157.5 -87s-52.833 -125.333 -55.5 -202h193c0 35.333 17.667 53 53 53c32 0 77 -8.66699 135 -26c58.667 -18 103 -27 133 -27
c72.667 0 125.834 28.333 159.501 85s51.5 124.667 53.5 204h-192z" />
    <glyph glyph-name="emdash" unicode="&#x2013;" horiz-adv-x="996" 
d="M-4 522h1004v195h-1004v-195z" />
    <glyph glyph-name="endash" unicode="&#x2014;" horiz-adv-x="1991" 
d="M-8 522h979h1028v195h-983h-1024v-195z" />
    <glyph glyph-name="quoteleft" unicode="&#x2018;" horiz-adv-x="498" 
d="M298 1272v16c6.66699 74.667 55.667 116.334 147 125.001v148c-72 0 -138 -15.667 -198 -47c-60 -30.667 -107.333 -72.334 -142 -125.001s-52 -110 -52 -172v-340h392v395h-147z" />
    <glyph glyph-name="quoteright" unicode="&#x2019;" horiz-adv-x="498" 
d="M201 1171v-15.999c-8 -86 -57.333 -129 -148 -129v-149c72 0 138 15.5 198 46.5s107.333 73.167 142 126.5s52 111.666 52 174.999v336h-392v-390h148z" />
    <glyph glyph-name="quotedblleft" unicode="&#x201c;" horiz-adv-x="1037" 
d="M836 1272l-0.000976562 16.001c0 74 47.667 115.667 143 125v148c-71.333 0 -136.666 -15.667 -195.999 -47c-59.333 -30.667 -106 -72.334 -140 -125.001s-51 -110 -51 -172v-340h387v395h-143zM300.999 1272l0.00195312 16.001
c7.33301 74.667 56.666 116.334 147.999 125.001v148c-54.667 0 -105.834 -9 -153.501 -27s-89.167 -42.833 -124.5 -74.5s-63 -68.334 -83 -110.001s-30 -85.834 -30 -132.501v-340h391v395h-148z" />
    <glyph glyph-name="quotedblright" unicode="&#x201d;" horiz-adv-x="1037" 
d="M205 1171v-15.999c-8 -86 -57 -129 -147 -129v-149c71.333 0 137 15.5 197 46.5s107.333 73.167 142 126.5s52 111.666 52 174.999v336h-391v-390h147zM733 1171v-16.002c0 -43.333 -12.667 -75.666 -38 -96.999s-59.666 -32 -102.999 -32v-149
c71.333 0 136.666 15.5 195.999 46.5s106 73.333 140 127s51 111.834 51 174.501v336h-387v-390h141z" />
    <glyph glyph-name="quotedblbase" unicode="&#x201e;" horiz-adv-x="1037" 
d="M205 0v-17.001c-7.33301 -76.667 -56.333 -119.667 -147 -129v-149c71.333 0 137 15.5 197 46.5s107.667 73.167 143 126.5c34 52.667 51 110.334 51 173.001v336h-391v-387h147zM733 -0.000976562l0.000976562 -17c0 -75.333 -47 -118.333 -141 -129v-149
c71.333 0 136.666 15.5 195.999 46.5s106 73.167 140 126.5s51 111 51 173v336h-387v-387h141z" />
    <glyph glyph-name="dagger" unicode="&#x2020;" 
d="M848 752l348 -25v299l-348 -24l23 465h-386l25 -465l-355 24v-299l355 25l-4 -12l-21 -1035h386l-4 12z" />
    <glyph glyph-name="daggerdbl" unicode="&#x2021;" 
d="M848 170l348 -24v295l-348 -29v340l348 -25v299l-348 -24l23 465h-386l25 -465l-355 24v-299l355 25v-340l-355 29v-295l355 24l-25 -465h386z" />
    <glyph glyph-name="bullet" unicode="&#x2022;" 
d="M293 195h772v782h-772v-782z" />
    <glyph glyph-name="ellipsis" unicode="&#x2026;" horiz-adv-x="1991" 
d="M180 0h289v295h-289v-295zM848 0h293v295h-293v-295zM1518 0h289v295h-289v-295z" />
    <glyph glyph-name="perthousand" unicode="&#x2030;" horiz-adv-x="2628" 
d="M1381 0c117.333 0 210.499 31.668 279.499 95.001s103.5 153.333 103.5 270c0 78.667 -15.667 145.167 -47 199.5s-76 95.166 -134 122.499c-57.333 26.667 -124.666 40 -201.999 40c-117.333 0 -210.333 -31 -279 -93c-68 -62 -102 -151.667 -102 -269
c0 -116.667 34.333 -206.667 103 -270c69.333 -63.333 162 -95 278 -95zM1381 195.001c-60.667 0 -91 56.667 -91 170s30.333 170 91 170c58 0 87 -56.667 87 -170s-29 -170 -87 -170zM411.999 731.001c117.333 0 210.5 32.167 279.5 96.5s103.5 155.833 103.5 274.5
c0 116 -34.333 205.833 -103 269.5s-162 95.5 -280 95.5c-116 0 -208 -32 -276 -96c-68.667 -63.333 -103 -153 -103 -269c0 -118 34.167 -209.333 102.5 -274s160.5 -97 276.5 -97zM411.999 925.001c-60 0 -90 59 -90 177c0 113.333 30 170 90 170s90 -56.667 90 -170
c0 -118 -30 -177 -90 -177zM204.999 -36.999h248l366 504l764 1034h-237l-375 -503zM2216 0.000976562c118 0 211.333 31.667 280 95s103 153.333 103 270c0 78.667 -15.667 145.167 -47 199.5s-75.833 95 -133.5 122s-125.167 40.5 -202.5 40.5
c-120 0 -214.167 -30.833 -282.5 -92.5s-102.5 -151.5 -102.5 -269.5c0 -116.667 34.5 -206.667 103.5 -270s162.833 -95 281.5 -95zM2216 195.001c-60 0 -90 56.667 -90 170s30 170 90 170c58.667 0 88 -56.667 88 -170s-29.333 -170 -88 -170z" />
    <glyph glyph-name="guilsinglleft" unicode="&#x2039;" horiz-adv-x="674" 
d="M639 1030l-174 134l-428 -445l428 -432l174 129l-223 303z" />
    <glyph glyph-name="guilsinglright" unicode="&#x203a;" horiz-adv-x="674" 
d="M37 416l172 -129l430 432l-430 445l-172 -134l221 -311z" />
    <glyph glyph-name="trademark" unicode="&#x2122;" horiz-adv-x="1759" 
d="M205 727h338v516h221v224h-777v-224h218v-516zM1733 1467h-342l-121 -338h-4l-94 338h-345v-740h218v387h2l86 -325h164l94 325h4v-387h338v740z" />
    <glyph glyph-name=".null" horiz-adv-x="0" 
 />
    <glyph glyph-name="nonmarkingreturn" horiz-adv-x="0" 
 />
    </font>
</defs>
</svg>
